<svg width="316" height="316" viewBox="0 0 316 316" fill="none" xmlns="http://www.w3.org/2000/svg">
<path d="M315 152.357C315 235.915 244.743 303.714 158 303.714C71.2567 303.714 1 235.915 1 152.357C1 68.7989 71.2567 1 158 1C244.743 1 315 68.7989 315 152.357Z" fill="#221518" stroke="#79756B" stroke-width="2"/>
<path d="M189.228 315.798C180.133 314.748 171.327 311.365 163.073 305.753C161.181 304.467 161.146 304.428 161.142 303.645C161.14 303.207 161.22 302.848 161.336 302.848C161.836 302.848 166.482 300.065 168.466 298.577C175.241 293.498 180.107 286.97 184.236 277.42C186.454 272.295 187.532 269.033 191.577 255.29C195.478 242.03 196.968 237.507 198.796 233.372C202.255 225.547 207.004 218.055 214.067 209.276C225.147 195.506 239.932 182.844 254.603 174.559C260.162 171.421 263.064 170.327 266.337 170.13L268.318 169.998L270.68 172.952C271.979 174.576 273.538 176.554 274.146 177.35L275.255 178.794L276.837 184.361C278.539 190.353 279.288 193.498 279.901 197.186C282.452 212.618 280.92 231.645 275.853 247.418C269.26 267.947 255.652 287.224 238.6 300.189C232.093 305.137 224.431 309.42 217.416 312.031C212.605 313.821 207.279 315.121 202.356 315.703C199.363 316.053 191.98 316.105 189.228 315.798ZM112.024 315.36C92.2173 313.264 72.8082 302.121 58.229 284.473C44.6871 268.08 36.4752 248.553 34.36 227.715C32.7276 211.619 33.5808 198.93 37.1559 186.181C37.9043 183.516 38.1795 182.833 39.0868 181.401C40.634 178.964 42.3363 176.523 44.9831 172.947L47.329 169.778L49.985 169.909C54.1251 170.084 60.3754 171.493 64.8947 173.253C79.6577 179 93.5621 194.395 99.7766 211.874C101.731 217.376 102.933 222.261 105.242 234.111C107.018 243.215 108.088 247.918 109.382 252.304C112.562 263.063 117.446 271.856 124.931 280.295C129.848 285.837 132.678 288.232 139.262 292.418C147.519 297.667 150.225 300.189 151.926 304.22L152.461 305.494L152.039 305.756C151.228 306.229 141.408 310.27 138.231 311.441C132.452 313.568 126.949 314.916 122.017 315.402C119.415 315.664 114.498 315.635 112.024 315.36ZM152.559 292.689C151.167 291.862 150.038 290.164 147.578 285.205C143.674 277.332 141.751 272.118 140.149 265.06C138.571 258.106 138.23 254.435 138.23 244.419C138.231 236.205 138.307 234.503 139.09 228.46C140.967 213.686 145.8 199.479 153.203 186.966C158.195 178.527 167.392 166.788 172.875 161.855C174.64 160.266 177.983 157.859 178.997 157.446C179.346 157.315 179.61 157.14 179.61 157.052C179.61 156.833 178.412 157.446 172.371 160.79C169.688 162.269 167.439 163.42 167.377 163.35C167.222 163.175 168.2 159.074 168.975 156.686C169.805 154.143 172.127 148.694 173.426 146.253C177.176 139.195 181.827 132.524 188.781 124.222L190.727 121.898L194.453 122.922C203.182 125.325 210.851 128.149 218.702 131.854C221.994 133.407 228.418 136.761 228.691 137.069C228.846 137.244 225.302 138.618 222.735 139.332C222.033 139.507 221.463 139.769 221.463 139.848C221.463 139.935 222.545 140.067 223.868 140.154C227.489 140.373 231.042 140.859 234.189 141.568C236.846 142.168 237.129 142.277 238.809 143.402C243.616 146.614 250.591 152.196 255.689 156.909C258.674 159.67 258.76 159.272 255.022 160.064C249.538 161.228 242.676 164.49 234.095 170.017C210.173 185.423 193.114 204.541 183.837 226.341C180.894 233.259 179.576 237.706 176.684 250.498C173.392 265.064 171.854 270.067 168.858 275.965C165.888 281.813 160.411 289.251 157.527 291.354C155.375 292.926 153.7 293.367 152.559 292.689ZM167.271 209.125C169.171 208.127 170.97 205.383 174.729 197.751C177.551 192.02 179.011 189.856 183.374 184.934C186.635 181.254 188.808 179.119 192.427 176.039C195.583 173.352 200.78 169.503 202.518 168.567C209.673 164.716 210.35 164.296 211.557 162.958C213.251 161.081 213.437 159.579 212.15 158.089C210.591 156.277 208.478 155.848 205.459 156.723C196.386 159.362 186.021 167.255 176.997 178.399C171.44 185.262 165.277 194.969 163.613 199.48C161.729 204.589 162.182 208.248 164.839 209.316C165.851 209.709 166.181 209.694 167.271 209.125ZM128.499 258.516C126.941 256.888 125.901 254.538 124.11 248.601C122.474 243.184 121.621 239.282 119.751 228.676C118.088 219.25 117.398 215.859 116.424 212.413C114.156 204.364 110.013 195.641 105.047 188.454C92.851 170.805 75.8385 159.765 59.7277 159.047L56.8273 158.916L57.75 157.988C62.3721 153.323 67.7457 148.599 72.7171 144.83C75.7222 142.549 75.889 142.453 77.675 141.997C81.6677 140.973 85.1764 140.458 90.2979 140.134C91.5154 140.046 92.5119 139.914 92.5119 139.871C92.5119 139.783 91.9381 139.565 91.2324 139.359C90.5306 139.14 88.8982 138.409 87.607 137.704L85.261 136.422L86.2923 135.779C87.8239 134.825 93.3822 131.888 95.953 130.676C104.52 126.637 112.575 123.838 123.101 121.244C123.334 121.201 124.245 122.142 126.118 124.391C136.959 137.43 143.787 149.781 146.342 160.973C146.613 162.233 146.819 163.314 146.761 163.38C146.722 163.423 145.373 162.854 143.802 162.075C142.232 161.292 140.898 160.705 140.844 160.771C140.805 160.815 141.449 161.467 142.313 162.181C151.319 169.581 151.803 170.002 151.739 170.401C151.622 171.184 149.994 174.602 148.885 176.436C147.85 178.142 146.803 179.648 141.929 186.457C140.964 187.805 139.583 189.901 138.858 191.12C134.586 198.308 130.213 211.783 128.438 223.227C127.515 229.173 127.306 232.073 127.31 238.909C127.313 246.069 127.62 249.697 128.729 255.16C129.667 259.823 129.674 259.747 128.499 258.516ZM114.616 165.987C116.981 164.609 117.178 161.048 115.003 158.991C113.437 157.512 109.374 155.652 106.61 155.148C104.928 154.842 103.826 154.973 102.81 155.638C100.922 156.855 100.887 160.1 102.733 162.117C105.362 164.98 112.408 167.273 114.616 165.987ZM299.773 233.218C298.145 232.911 297.082 231.993 296.303 230.268C295.904 229.384 295.861 228.925 295.729 224.417C295.458 215.527 294.632 208.672 292.829 200.797C285.738 169.868 265.786 145.63 234.518 129.959C217.486 121.422 197.17 115.73 175.654 113.467C167.341 112.591 165.032 112.491 153.878 112.491C142.441 112.495 139.699 112.622 130.878 113.677C101.835 117.113 76.1096 127.399 57.5335 143.011C50.2585 149.125 43.32 156.885 38.4141 164.392C27.5217 181.06 21.9303 200.208 21.2591 223.138C21.0652 229.266 20.9878 229.73 19.5453 231.185C16.7651 234.008 12.4294 232.471 11.6543 228.392C11.4216 227.272 11.6567 218.82 12.0034 214.73C13.8568 192.821 19.998 174.099 30.6737 157.809C46.4552 133.727 72.4088 116.167 104.875 107.604C115.772 104.728 125.567 103.102 138.983 101.937C143.142 101.587 159.988 101.437 165.189 101.718C206.981 104.002 243.143 117.443 268.128 139.973C286.082 156.162 297.754 176.574 302.721 200.47C304.466 208.873 305.463 218.653 305.331 226.129C305.253 229.748 305.253 229.77 304.698 230.804C303.71 232.608 301.699 233.594 299.773 233.218Z" fill="url(#paint0_linear_220_8704)"/>
<mask id="path-3-inside-1_220_8704" fill="white">
<path fill-rule="evenodd" clip-rule="evenodd" d="M10.5596 79.6375C9.87674 80.0585 9.31799 81.0003 9.31799 81.7304C9.31799 82.5752 11.0111 82.7787 13.9741 82.2901C16.5349 81.8679 20.5145 81.5182 22.8175 81.5088C26.5696 81.4966 26.8278 81.2827 25.3008 79.4503C24.0114 77.903 23.4989 71.2724 23.1948 52.204L23.1948 52.2029C22.7929 27.0025 22.7929 27.0025 26.7206 27.0025C29.295 27.0025 31.4289 27.9627 32.9134 29.7891C33.9501 31.0645 34.5123 31.7561 34.7977 31.6563C35.1359 31.538 35.0853 30.3084 34.9749 27.6218C34.8629 24.8971 35.166 21.2747 35.6483 19.5717C36.5253 16.4756 36.5252 16.4756 18.2655 16.4756C0.00511177 16.4756 0.00511177 16.4756 0.000419037 24.7754L0.000419004 24.7755C-0.00273933 29.6329 -0.00406759 31.6475 0.632262 31.8745C1.08323 32.0354 1.85448 31.2983 3.17234 30.0389C4.91993 28.3689 7.57638 27.0025 9.07553 27.0025C11.7965 27.0025 11.8012 27.0592 11.8012 52.9374C11.8012 68.8913 11.3234 79.1666 10.5596 79.6375ZM288.646 51.4663C289.072 50.9575 290.766 57.7846 292.41 66.6375C295.398 82.7337 295.398 82.7337 300.676 82.7337C305.67 82.7337 305.989 82.5168 306.605 78.7087C307.459 73.4216 309.151 60.1127 311.683 38.768C312.815 29.2318 314.249 20.4617 314.87 19.2789C315.491 18.0961 316 16.9817 316 16.802C316 16.6227 312.929 16.4757 309.175 16.4757C302.306 16.4757 301.45 16.8525 303.407 19.0146C304.006 19.6769 303.366 26.8524 301.942 35.4304C300.433 44.5241 299.023 49.9744 298.445 48.9453C297.913 47.9968 296.248 40.9485 294.744 33.2825C292.421 21.4382 292.274 19.1781 293.762 18.2385C294.917 17.5095 293.241 17.1279 288.842 17.1139C283.251 17.098 282.406 17.3767 283.62 18.836C284.737 20.1786 284.43 23.722 282.278 34.3169C280.743 41.8738 279.11 48.0567 278.649 48.0567C277.827 48.0567 275.205 33.9713 274.097 23.5969C273.699 19.8783 273.996 18.3334 275.108 18.3334C275.975 18.3334 276.357 18.0101 275.961 17.6146C274.875 16.5311 258.883 16.3345 258.884 17.4044C258.885 17.9153 259.384 18.3332 259.994 18.3332C261.668 18.3332 262.225 20.4634 265.066 37.7338C266.504 46.4765 268.559 58.7738 269.633 65.0611C270.707 71.3485 271.285 77.2736 270.918 78.228C270.446 79.4548 271.587 80.1841 274.811 80.7158C278.396 81.3071 280.433 81.7527 281.761 80.9799C283.668 79.8705 284.113 76.2497 285.579 66.9432C286.84 58.9396 288.22 51.975 288.646 51.4663ZM42.4995 68.4913C45.1375 73.5932 48.2757 76.9449 51.5333 78.1397C55.1975 79.4836 62.8933 78.9863 66.3966 77.1793C76.0779 72.1857 80.0795 54.4923 75.9606 34.8931C73.306 22.2614 67.9552 16.682 58.4958 16.682C51.4025 16.682 45.8303 20.2259 42.6633 26.7515C40.4452 31.3215 40.0453 34.4823 39.996 47.8325C39.9461 61.3425 40.2961 64.2298 42.4995 68.4913ZM225.491 75.8452C225.813 76.1661 231.921 76.934 239.066 77.5516C246.21 78.1691 253.034 78.7518 254.229 78.8464C255.523 78.9488 256.419 78.1419 256.442 76.851C256.465 75.659 257.541 71.6244 258.835 67.8853C260.129 64.1462 260.972 60.8721 260.71 60.61C260.447 60.3477 258.457 61.6222 256.288 63.4423C252.949 66.2449 251.373 66.6953 245.993 66.383C239.639 66.0144 239.639 66.0144 239.267 58.8932C238.895 51.772 238.895 51.772 244.296 51.772C247.266 51.772 250.367 52.4408 251.187 53.2581C252.346 54.414 252.68 53.9324 252.684 51.0909C252.689 49.0814 253.452 45.9845 254.381 44.2087C256.07 40.9802 256.07 40.9802 247.545 41.5886L247.544 41.5886C239.019 42.1971 239.019 42.1971 239.019 34.5999V34.5998C239.019 30.3229 239.019 28.4538 239.946 27.6368C240.666 27.0026 241.944 27.0026 244.216 27.0026C247.883 27.0026 250.301 27.8228 252.431 29.7892C253.941 31.1826 254.695 31.8793 254.965 31.7255C255.234 31.5718 255.019 30.5683 254.588 28.5614C254.011 25.8773 254.375 23.2494 255.685 20.6307C256.762 18.4767 257.644 16.6605 257.644 16.5949C257.645 16.5294 250.382 16.4756 241.505 16.4756C226.532 16.4756 223.423 16.9923 226.603 18.9525C228.473 20.1053 228.258 71.9183 226.375 73.7961C225.567 74.6021 225.169 75.5241 225.491 75.8452ZM83.2018 18.7838C86.0152 19.8607 85.9449 69.7722 83.1244 73.7888L83.1243 73.7889C81.1915 76.5414 81.1915 76.5414 90.574 76.5414C95.7345 76.5414 99.9566 76.3263 99.9566 76.0637C99.9566 75.801 99.122 73.9897 98.1018 72.0387C97.0817 70.0877 96.2436 66.186 96.2394 63.3685C96.2318 58.2833 96.2709 58.2397 101.549 57.4501C112.965 55.7427 118.673 48.9381 118.487 37.2597C118.36 29.344 116.036 23.3526 111.891 20.2593C109.119 18.1911 106.03 17.5979 95.4054 17.0948C83.1878 16.5162 78.8467 17.1169 83.2018 18.7838ZM205.762 72.8601C204.492 74.8885 204.786 75.2086 208.326 75.6481C210.525 75.9214 215.064 76.234 218.414 76.3431C224.332 76.5357 224.444 76.4745 222.36 74.1783C220.046 71.6275 212.945 55.0989 212.945 52.2628C212.945 51.3117 213.531 50.5335 214.247 50.5335C216.165 50.5335 220.334 40.6346 220.367 36.0065C220.407 30.1955 216.964 22.5376 213.15 19.955C210.652 18.2635 206.567 17.5624 196.491 17.0948C184.163 16.523 181.187 16.9798 184.387 18.9525C185.151 19.4232 185.629 29.6744 185.629 45.5796C185.629 61.4848 185.151 71.736 184.387 72.2067C181.114 74.2245 183.992 75.3029 192.65 75.3029C201.615 75.3029 202.045 75.1796 200.213 73.1355C197.616 70.238 196.726 55.7759 199.089 54.8752C201.715 53.874 202.433 54.8754 204.89 62.9689C206.696 68.9203 206.885 71.0656 205.762 72.8601ZM142.172 72.2067C141.489 72.6277 140.93 73.4965 140.93 74.1375C140.93 74.7888 146.462 75.3029 153.47 75.3029C169.208 75.3029 173.756 73.4778 177.164 65.7936C179.81 59.8267 178.961 53.5781 174.897 49.0983C172.862 46.8559 172.859 46.5117 174.837 43.171C177.414 38.8205 177.568 29.3341 175.139 24.648C172.009 18.6111 168.657 17.372 154.192 16.9044C141.913 16.5074 139.008 17.0023 142.172 18.9525C142.936 19.4232 143.414 29.6744 143.414 45.5796C143.414 61.4848 142.936 71.736 142.172 72.2067ZM52.204 58.8866C50.7463 51.8276 49.0606 31.8132 56.8941 28.0158C62.0466 25.518 64.4652 31.4341 65.385 35.3445C67.0817 42.5572 69.3563 62.4409 60.2924 66.1044C55.7205 67.9523 52.945 62.4751 52.204 58.8866ZM95.1501 26.6695L96.3894 47.7351C112.028 45.2495 111.51 26.7273 95.1501 26.6695ZM154.632 26.6695V41.5393C168.946 40.7552 169.699 26.7227 154.632 26.6695ZM196.766 26.6695V45.2568C212.069 44.4185 212.941 26.7267 196.766 26.6695ZM154.632 50.2135V65.0833C169.703 64.9054 170.014 50.3527 154.632 50.2135Z"/>
</mask>
<path fill-rule="evenodd" clip-rule="evenodd" d="M10.5596 79.6375C9.87674 80.0585 9.31799 81.0003 9.31799 81.7304C9.31799 82.5752 11.0111 82.7787 13.9741 82.2901C16.5349 81.8679 20.5145 81.5182 22.8175 81.5088C26.5696 81.4966 26.8278 81.2827 25.3008 79.4503C24.0114 77.903 23.4989 71.2724 23.1948 52.204L23.1948 52.2029C22.7929 27.0025 22.7929 27.0025 26.7206 27.0025C29.295 27.0025 31.4289 27.9627 32.9134 29.7891C33.9501 31.0645 34.5123 31.7561 34.7977 31.6563C35.1359 31.538 35.0853 30.3084 34.9749 27.6218C34.8629 24.8971 35.166 21.2747 35.6483 19.5717C36.5253 16.4756 36.5252 16.4756 18.2655 16.4756C0.00511177 16.4756 0.00511177 16.4756 0.000419037 24.7754L0.000419004 24.7755C-0.00273933 29.6329 -0.00406759 31.6475 0.632262 31.8745C1.08323 32.0354 1.85448 31.2983 3.17234 30.0389C4.91993 28.3689 7.57638 27.0025 9.07553 27.0025C11.7965 27.0025 11.8012 27.0592 11.8012 52.9374C11.8012 68.8913 11.3234 79.1666 10.5596 79.6375ZM288.646 51.4663C289.072 50.9575 290.766 57.7846 292.41 66.6375C295.398 82.7337 295.398 82.7337 300.676 82.7337C305.67 82.7337 305.989 82.5168 306.605 78.7087C307.459 73.4216 309.151 60.1127 311.683 38.768C312.815 29.2318 314.249 20.4617 314.87 19.2789C315.491 18.0961 316 16.9817 316 16.802C316 16.6227 312.929 16.4757 309.175 16.4757C302.306 16.4757 301.45 16.8525 303.407 19.0146C304.006 19.6769 303.366 26.8524 301.942 35.4304C300.433 44.5241 299.023 49.9744 298.445 48.9453C297.913 47.9968 296.248 40.9485 294.744 33.2825C292.421 21.4382 292.274 19.1781 293.762 18.2385C294.917 17.5095 293.241 17.1279 288.842 17.1139C283.251 17.098 282.406 17.3767 283.62 18.836C284.737 20.1786 284.43 23.722 282.278 34.3169C280.743 41.8738 279.11 48.0567 278.649 48.0567C277.827 48.0567 275.205 33.9713 274.097 23.5969C273.699 19.8783 273.996 18.3334 275.108 18.3334C275.975 18.3334 276.357 18.0101 275.961 17.6146C274.875 16.5311 258.883 16.3345 258.884 17.4044C258.885 17.9153 259.384 18.3332 259.994 18.3332C261.668 18.3332 262.225 20.4634 265.066 37.7338C266.504 46.4765 268.559 58.7738 269.633 65.0611C270.707 71.3485 271.285 77.2736 270.918 78.228C270.446 79.4548 271.587 80.1841 274.811 80.7158C278.396 81.3071 280.433 81.7527 281.761 80.9799C283.668 79.8705 284.113 76.2497 285.579 66.9432C286.84 58.9396 288.22 51.975 288.646 51.4663ZM42.4995 68.4913C45.1375 73.5932 48.2757 76.9449 51.5333 78.1397C55.1975 79.4836 62.8933 78.9863 66.3966 77.1793C76.0779 72.1857 80.0795 54.4923 75.9606 34.8931C73.306 22.2614 67.9552 16.682 58.4958 16.682C51.4025 16.682 45.8303 20.2259 42.6633 26.7515C40.4452 31.3215 40.0453 34.4823 39.996 47.8325C39.9461 61.3425 40.2961 64.2298 42.4995 68.4913ZM225.491 75.8452C225.813 76.1661 231.921 76.934 239.066 77.5516C246.21 78.1691 253.034 78.7518 254.229 78.8464C255.523 78.9488 256.419 78.1419 256.442 76.851C256.465 75.659 257.541 71.6244 258.835 67.8853C260.129 64.1462 260.972 60.8721 260.71 60.61C260.447 60.3477 258.457 61.6222 256.288 63.4423C252.949 66.2449 251.373 66.6953 245.993 66.383C239.639 66.0144 239.639 66.0144 239.267 58.8932C238.895 51.772 238.895 51.772 244.296 51.772C247.266 51.772 250.367 52.4408 251.187 53.2581C252.346 54.414 252.68 53.9324 252.684 51.0909C252.689 49.0814 253.452 45.9845 254.381 44.2087C256.07 40.9802 256.07 40.9802 247.545 41.5886L247.544 41.5886C239.019 42.1971 239.019 42.1971 239.019 34.5999V34.5998C239.019 30.3229 239.019 28.4538 239.946 27.6368C240.666 27.0026 241.944 27.0026 244.216 27.0026C247.883 27.0026 250.301 27.8228 252.431 29.7892C253.941 31.1826 254.695 31.8793 254.965 31.7255C255.234 31.5718 255.019 30.5683 254.588 28.5614C254.011 25.8773 254.375 23.2494 255.685 20.6307C256.762 18.4767 257.644 16.6605 257.644 16.5949C257.645 16.5294 250.382 16.4756 241.505 16.4756C226.532 16.4756 223.423 16.9923 226.603 18.9525C228.473 20.1053 228.258 71.9183 226.375 73.7961C225.567 74.6021 225.169 75.5241 225.491 75.8452ZM83.2018 18.7838C86.0152 19.8607 85.9449 69.7722 83.1244 73.7888L83.1243 73.7889C81.1915 76.5414 81.1915 76.5414 90.574 76.5414C95.7345 76.5414 99.9566 76.3263 99.9566 76.0637C99.9566 75.801 99.122 73.9897 98.1018 72.0387C97.0817 70.0877 96.2436 66.186 96.2394 63.3685C96.2318 58.2833 96.2709 58.2397 101.549 57.4501C112.965 55.7427 118.673 48.9381 118.487 37.2597C118.36 29.344 116.036 23.3526 111.891 20.2593C109.119 18.1911 106.03 17.5979 95.4054 17.0948C83.1878 16.5162 78.8467 17.1169 83.2018 18.7838ZM205.762 72.8601C204.492 74.8885 204.786 75.2086 208.326 75.6481C210.525 75.9214 215.064 76.234 218.414 76.3431C224.332 76.5357 224.444 76.4745 222.36 74.1783C220.046 71.6275 212.945 55.0989 212.945 52.2628C212.945 51.3117 213.531 50.5335 214.247 50.5335C216.165 50.5335 220.334 40.6346 220.367 36.0065C220.407 30.1955 216.964 22.5376 213.15 19.955C210.652 18.2635 206.567 17.5624 196.491 17.0948C184.163 16.523 181.187 16.9798 184.387 18.9525C185.151 19.4232 185.629 29.6744 185.629 45.5796C185.629 61.4848 185.151 71.736 184.387 72.2067C181.114 74.2245 183.992 75.3029 192.65 75.3029C201.615 75.3029 202.045 75.1796 200.213 73.1355C197.616 70.238 196.726 55.7759 199.089 54.8752C201.715 53.874 202.433 54.8754 204.89 62.9689C206.696 68.9203 206.885 71.0656 205.762 72.8601ZM142.172 72.2067C141.489 72.6277 140.93 73.4965 140.93 74.1375C140.93 74.7888 146.462 75.3029 153.47 75.3029C169.208 75.3029 173.756 73.4778 177.164 65.7936C179.81 59.8267 178.961 53.5781 174.897 49.0983C172.862 46.8559 172.859 46.5117 174.837 43.171C177.414 38.8205 177.568 29.3341 175.139 24.648C172.009 18.6111 168.657 17.372 154.192 16.9044C141.913 16.5074 139.008 17.0023 142.172 18.9525C142.936 19.4232 143.414 29.6744 143.414 45.5796C143.414 61.4848 142.936 71.736 142.172 72.2067ZM52.204 58.8866C50.7463 51.8276 49.0606 31.8132 56.8941 28.0158C62.0466 25.518 64.4652 31.4341 65.385 35.3445C67.0817 42.5572 69.3563 62.4409 60.2924 66.1044C55.7205 67.9523 52.945 62.4751 52.204 58.8866ZM95.1501 26.6695L96.3894 47.7351C112.028 45.2495 111.51 26.7273 95.1501 26.6695ZM154.632 26.6695V41.5393C168.946 40.7552 169.699 26.7227 154.632 26.6695ZM196.766 26.6695V45.2568C212.069 44.4185 212.941 26.7267 196.766 26.6695ZM154.632 50.2135V65.0833C169.703 64.9054 170.014 50.3527 154.632 50.2135Z" fill="#F8E4BE"/>
<path d="M10.5596 79.6375L11.0844 80.4888L11.0844 80.4888L10.5596 79.6375ZM13.9741 82.2901L14.1368 83.2768H14.1368L13.9741 82.2901ZM22.8175 81.5088L22.8142 80.5088H22.8134L22.8175 81.5088ZM25.3008 79.4503L24.5326 80.0905V80.0905L25.3008 79.4503ZM23.1948 52.204L22.1949 52.2191L22.1949 52.2199L23.1948 52.204ZM23.1948 52.2029L24.1946 52.1877L24.1946 52.1869L23.1948 52.2029ZM32.9134 29.7891L32.1374 30.4199L32.1374 30.4199L32.9134 29.7891ZM34.7977 31.6563L35.1279 32.6002L35.1279 32.6002L34.7977 31.6563ZM34.9749 27.6218L33.9757 27.6629V27.6629L34.9749 27.6218ZM35.6483 19.5717L34.6862 19.2992L34.6862 19.2992L35.6483 19.5717ZM0.000419037 24.7754L1.00042 24.776V24.776L0.000419037 24.7754ZM0.000419004 24.7755L1.00042 24.7761L1.00042 24.776L0.000419004 24.7755ZM0.632262 31.8745L0.296301 32.8164H0.296301L0.632262 31.8745ZM3.17234 30.0389L2.48146 29.316L2.48146 29.316L3.17234 30.0389ZM292.41 66.6375L293.393 66.4549L292.41 66.6375ZM288.646 51.4663L287.88 50.8241L287.879 50.8242L288.646 51.4663ZM306.605 78.7087L307.592 78.8682V78.8682L306.605 78.7087ZM311.683 38.768L310.69 38.6502V38.6502L311.683 38.768ZM314.87 19.2789L315.755 19.744V19.744L314.87 19.2789ZM316 16.802L315 16.8011V16.8013L316 16.802ZM303.407 19.0146L304.148 18.3435L304.148 18.3435L303.407 19.0146ZM301.942 35.4304L300.956 35.2667V35.2667L301.942 35.4304ZM298.445 48.9453L297.573 49.4346V49.4346L298.445 48.9453ZM294.744 33.2825L293.763 33.4749V33.4749L294.744 33.2825ZM293.762 18.2385L293.228 17.393L293.228 17.393L293.762 18.2385ZM288.842 17.1139L288.846 16.1139L288.845 16.1139L288.842 17.1139ZM283.62 18.836L284.389 18.1964V18.1964L283.62 18.836ZM282.278 34.3169L281.298 34.1178V34.1178L282.278 34.3169ZM274.097 23.5969L273.102 23.7031L274.097 23.5969ZM275.961 17.6146L275.255 18.3225L275.255 18.3226L275.961 17.6146ZM258.884 17.4044L257.884 17.4052V17.4053L258.884 17.4044ZM265.066 37.7338L264.079 37.8961V37.8961L265.066 37.7338ZM269.633 65.0611L270.619 64.8928V64.8928L269.633 65.0611ZM270.918 78.228L269.985 77.8688L269.985 77.869L270.918 78.228ZM274.811 80.7158L274.648 81.7025L274.811 80.7158ZM281.761 80.9799L281.258 80.1156L281.761 80.9799ZM285.579 66.9432L284.591 66.7876L285.579 66.9432ZM51.5333 78.1397L51.189 79.0785L51.189 79.0785L51.5333 78.1397ZM42.4995 68.4913L41.6112 68.9506L42.4995 68.4913ZM66.3966 77.1793L65.9382 76.2905L65.9382 76.2905L66.3966 77.1793ZM75.9606 34.8931L74.9819 35.0988V35.0988L75.9606 34.8931ZM42.6633 26.7515L43.5629 27.1881L43.5629 27.1881L42.6633 26.7515ZM39.996 47.8325L40.996 47.8362V47.8362L39.996 47.8325ZM239.066 77.5516L238.98 78.5479H238.98L239.066 77.5516ZM225.491 75.8452L224.785 76.5532L224.785 76.5533L225.491 75.8452ZM254.229 78.8464L254.308 77.8495H254.308L254.229 78.8464ZM256.442 76.851L255.442 76.8323L255.442 76.8328L256.442 76.851ZM260.71 60.61L260.003 61.318L260.003 61.318L260.71 60.61ZM256.288 63.4423L255.646 62.6763L255.646 62.6764L256.288 63.4423ZM245.993 66.383L246.051 65.3847H246.051L245.993 66.383ZM239.267 58.8932L240.266 58.841V58.841L239.267 58.8932ZM251.187 53.2581L251.893 52.5501L251.893 52.5501L251.187 53.2581ZM252.684 51.0909L251.684 51.0888V51.0892L252.684 51.0909ZM254.381 44.2087L253.495 43.7452L254.381 44.2087ZM247.545 41.5886L247.473 40.5911L247.47 40.5914L247.545 41.5886ZM247.544 41.5886L247.616 42.5861L247.619 42.5858L247.544 41.5886ZM239.946 27.6368L240.607 28.3871V28.3871L239.946 27.6368ZM252.431 29.7892L253.109 29.0544V29.0544L252.431 29.7892ZM254.965 31.7255L255.46 32.5941L255.46 32.5941L254.965 31.7255ZM254.588 28.5614L255.565 28.3515V28.3515L254.588 28.5614ZM255.685 20.6307L256.579 21.078V21.078L255.685 20.6307ZM257.644 16.5949L258.644 16.6029V16.6024L257.644 16.5949ZM226.603 18.9525L227.127 18.1012L226.603 18.9525ZM226.375 73.7961L227.081 74.5041L227.081 74.5041L226.375 73.7961ZM83.1244 73.7888L82.306 73.2142L82.299 73.2241L82.2923 73.2341L83.1244 73.7888ZM83.2018 18.7838L83.5592 17.8499V17.8499L83.2018 18.7838ZM83.1243 73.7889L83.9427 74.3636L83.9497 74.3537L83.9564 74.3436L83.1243 73.7889ZM98.1018 72.0387L97.2156 72.502V72.502L98.1018 72.0387ZM96.2394 63.3685L97.2394 63.367V63.367L96.2394 63.3685ZM101.549 57.4501L101.401 56.4611L101.549 57.4501ZM118.487 37.2597L119.486 37.2438L118.487 37.2597ZM111.891 20.2593L112.489 19.4579L112.489 19.4579L111.891 20.2593ZM95.4054 17.0948L95.358 18.0937L95.3581 18.0937L95.4054 17.0948ZM208.326 75.6481L208.449 74.6558L208.449 74.6558L208.326 75.6481ZM205.762 72.8601L204.914 72.3294V72.3294L205.762 72.8601ZM218.414 76.3431L218.382 77.3426H218.382L218.414 76.3431ZM222.36 74.1783L223.101 73.5064V73.5064L222.36 74.1783ZM220.367 36.0065L221.367 36.0136V36.0133L220.367 36.0065ZM213.15 19.955L212.589 20.783V20.783L213.15 19.955ZM196.491 17.0948L196.537 16.0959L196.537 16.0959L196.491 17.0948ZM184.387 18.9525L184.912 18.1013L184.912 18.1012L184.387 18.9525ZM184.387 72.2067L184.912 73.058L184.912 73.058L184.387 72.2067ZM200.213 73.1355L200.957 72.4682L200.957 72.4681L200.213 73.1355ZM199.089 54.8752L198.732 53.9408L198.732 53.9408L199.089 54.8752ZM204.89 62.9689L205.846 62.6784L204.89 62.9689ZM142.172 72.2067L142.697 73.058L142.697 73.058L142.172 72.2067ZM177.164 65.7936L176.249 65.3882V65.3882L177.164 65.7936ZM174.897 49.0983L175.637 48.4264V48.4264L174.897 49.0983ZM174.837 43.171L175.698 43.6806L175.698 43.6806L174.837 43.171ZM175.139 24.648L174.251 25.1083V25.1083L175.139 24.648ZM154.192 16.9044L154.16 17.9039V17.9039L154.192 16.9044ZM142.172 18.9525L142.697 18.1013L142.697 18.1012L142.172 18.9525ZM56.8941 28.0158L57.3303 28.9156L56.8941 28.0158ZM52.204 58.8866L53.1834 58.6844V58.6844L52.204 58.8866ZM65.385 35.3445L64.4116 35.5735L64.4116 35.5735L65.385 35.3445ZM60.2924 66.1044L59.9177 65.1773L60.2924 66.1044ZM95.1501 26.6695L95.1536 25.6695L94.0893 25.6657L94.1518 26.7282L95.1501 26.6695ZM96.3894 47.7351L95.3911 47.7939L95.4559 48.896L96.5463 48.7227L96.3894 47.7351ZM154.632 26.6695L154.636 25.6695L153.632 25.6659V26.6695H154.632ZM154.632 41.5393H153.632V42.5956L154.687 42.5378L154.632 41.5393ZM196.766 26.6695L196.769 25.6695L195.766 25.6659V26.6695H196.766ZM196.766 45.2568H195.766V46.3131L196.821 46.2553L196.766 45.2568ZM154.632 50.2135L154.642 49.2135L153.632 49.2044V50.2135H154.632ZM154.632 65.0833H153.632V66.0952L154.644 66.0833L154.632 65.0833ZM10.318 81.7304C10.318 81.5976 10.3781 81.3559 10.5428 81.0783C10.7042 80.8062 10.909 80.5969 11.0844 80.4888L10.0349 78.7863C9.52735 79.0991 9.11139 79.5712 8.82269 80.0578C8.5373 80.5389 8.31799 81.1331 8.31799 81.7304H10.318ZM13.8114 81.3035C12.3603 81.5427 11.3068 81.5959 10.6543 81.5174C10.3201 81.4773 10.1872 81.4129 10.1651 81.3989C10.1632 81.3977 10.2068 81.4251 10.2505 81.4966C10.2979 81.5745 10.318 81.6602 10.318 81.7304H8.31799C8.31799 82.3493 8.65875 82.8114 9.09261 83.087C9.48053 83.3335 9.95611 83.4479 10.4156 83.5031C11.3503 83.6155 12.6249 83.5261 14.1368 83.2768L13.8114 81.3035ZM22.8134 80.5088C20.4517 80.5184 16.4189 80.8735 13.8114 81.3035L14.1368 83.2768C16.6509 82.8623 20.5772 82.518 22.8216 82.5088L22.8134 80.5088ZM24.5326 80.0905C24.9239 80.5602 25.1115 80.8253 25.1812 80.9721C25.2137 81.0405 25.1685 80.9799 25.1774 80.84C25.1897 80.6479 25.2897 80.4842 25.4006 80.3923C25.4752 80.3304 25.5078 80.3398 25.3991 80.3685C25.3017 80.3943 25.1457 80.4216 24.9081 80.4442C24.4315 80.4897 23.7542 80.5058 22.8142 80.5088L22.8207 82.5088C23.7568 82.5058 24.5189 82.4905 25.0982 82.4352C25.3886 82.4075 25.6647 82.367 25.9103 82.3021C26.1447 82.2401 26.431 82.1359 26.677 81.932C26.9593 81.6981 27.1481 81.3639 27.1734 80.9673C27.1954 80.623 27.0874 80.324 26.988 80.1145C26.7939 79.7054 26.4411 79.2567 26.069 78.8101L24.5326 80.0905ZM22.1949 52.2199C22.3469 61.7531 22.5513 68.2059 22.8813 72.4746C23.0461 74.607 23.2444 76.2253 23.4911 77.4235C23.7294 78.5813 24.0405 79.5 24.5326 80.0905L26.069 78.8102C25.9164 78.627 25.6798 78.1367 25.45 77.0202C25.2284 75.944 25.0378 74.4228 24.8753 72.3205C24.5506 68.12 24.3467 61.7233 24.1947 52.188L22.1949 52.2199ZM22.1949 52.218L22.1949 52.2191L24.1947 52.1888L24.1946 52.1877L22.1949 52.218ZM26.7206 26.0025C26.2489 26.0025 25.748 26.0008 25.2948 26.0602C24.825 26.1219 24.3259 26.2574 23.8713 26.5852C22.9611 27.2415 22.5673 28.4163 22.3437 30.014C21.889 33.264 21.9949 39.6785 22.1949 52.2188L24.1946 52.1869C23.9927 39.5269 23.8977 33.3412 24.3244 30.2911C24.5416 28.7388 24.8591 28.3386 25.0411 28.2074C25.1325 28.1414 25.2746 28.08 25.555 28.0432C25.852 28.0043 26.2103 28.0025 26.7206 28.0025V26.0025ZM33.6894 29.1584C31.9956 27.0745 29.5639 26.0025 26.7206 26.0025V28.0025C29.0261 28.0025 30.8622 28.8509 32.1374 30.4199L33.6894 29.1584ZM34.4676 30.7124C34.6622 30.6443 34.8324 30.6636 34.9335 30.6904C34.9823 30.7033 35.0179 30.7185 35.0385 30.7284C35.0594 30.7384 35.0711 30.7459 35.0729 30.7471C35.0745 30.7481 35.0563 30.7361 35.0151 30.6994C34.9754 30.664 34.9243 30.6145 34.8601 30.5473C34.5891 30.2639 34.22 29.8111 33.6894 29.1584L32.1374 30.4199C32.6435 31.0425 33.0739 31.5732 33.4145 31.9295C33.5816 32.1042 33.7755 32.2894 33.9845 32.4249C34.155 32.5355 34.5973 32.7858 35.1279 32.6002L34.4676 30.7124ZM33.9757 27.6629C34.0316 29.0232 34.0697 29.9611 34.0548 30.5781C34.0472 30.8934 34.0265 31.0559 34.0104 31.1238C33.9734 31.2805 34.0123 30.8716 34.4675 30.7124L35.1279 32.6002C35.7522 32.3818 35.9116 31.7749 35.9568 31.5838C36.0229 31.3039 36.046 30.969 36.0542 30.6262C36.071 29.9272 36.0286 28.9071 35.974 27.5807L33.9757 27.6629ZM34.6862 19.2992C34.1638 21.1435 33.8615 24.8831 33.9757 27.6629L35.974 27.5807C35.8643 24.9112 36.1682 21.4058 36.6105 19.8442L34.6862 19.2992ZM18.2655 17.4756C22.8347 17.4756 26.247 17.4756 28.7893 17.5238C31.3492 17.5723 32.9593 17.6693 33.9578 17.8471C35.0439 18.0406 34.9811 18.2605 34.9328 18.1305C34.9253 18.1104 34.9521 18.1621 34.9151 18.389C34.878 18.6167 34.8008 18.8947 34.6862 19.2992L36.6105 19.8443C36.7151 19.4748 36.8297 19.0754 36.8891 18.7105C36.9487 18.3448 36.9767 17.8885 36.8072 17.4331C36.4349 16.4323 35.3953 16.0717 34.3085 15.8781C33.1342 15.6689 31.3754 15.5724 28.8271 15.5241C26.2613 15.4755 22.8262 15.4756 18.2655 15.4756V17.4756ZM1.00042 24.776C1.00162 22.6491 1.00927 21.2372 1.25972 20.2151C1.3782 19.7315 1.54107 19.3874 1.75061 19.1231C1.95735 18.8622 2.24936 18.6286 2.70077 18.4235C3.65258 17.991 5.19263 17.7336 7.75908 17.604C10.2957 17.4759 13.6892 17.4756 18.2655 17.4756V15.4756C13.7116 15.4756 10.2575 15.4753 7.6582 15.6065C5.08877 15.7363 3.2047 15.9977 1.87337 16.6027C1.18322 16.9163 0.618909 17.3311 0.183226 17.8808C-0.249659 18.4269 -0.515319 19.0555 -0.682819 19.7391C-1.00432 21.0512 -0.998437 22.7518 -0.999581 24.7748L1.00042 24.776ZM1.00042 24.776V24.776L-0.999581 24.7748L-0.999581 24.7749L1.00042 24.776ZM0.968223 30.9326C1.28357 31.0451 1.29168 31.2952 1.2222 31.0644C1.16644 30.8791 1.11246 30.5462 1.07415 29.9924C0.998373 28.8971 0.998827 27.2235 1.00042 24.7761L-0.999581 24.7748C-1.00115 27.1848 -1.00294 28.9473 -0.921083 30.1304C-0.880585 30.7158 -0.81578 31.2327 -0.692916 31.6408C-0.583775 32.0034 -0.337216 32.5904 0.296301 32.8164L0.968223 30.9326ZM2.48146 29.316C1.8058 29.9617 1.32733 30.4171 0.963704 30.6996C0.781893 30.8409 0.68227 30.8957 0.644328 30.9117C0.604612 30.9286 0.749681 30.8547 0.968222 30.9326L0.296301 32.8164C0.740329 32.9748 1.15092 32.8691 1.42383 32.7536C1.69852 32.6373 1.95863 32.4593 2.19074 32.279C2.65495 31.9183 3.22103 31.3756 3.86323 30.7619L2.48146 29.316ZM9.07553 26.0025C8.08576 26.0025 6.87505 26.4315 5.7597 27.0052C4.61408 27.5945 3.43219 28.4074 2.48146 29.316L3.86323 30.7619C4.66008 30.0004 5.68021 29.2952 6.67451 28.7837C7.69906 28.2567 8.56616 28.0025 9.07553 28.0025V26.0025ZM12.8012 52.9374C12.8012 40.0385 12.8017 33.4778 12.4533 30.1612C12.3652 29.3229 12.2509 28.6463 12.094 28.1061C11.9381 27.5694 11.7203 27.0969 11.3797 26.7327C10.6498 25.9522 9.65157 26.0025 9.07553 26.0025V28.0025C9.85999 28.0025 9.88268 28.06 9.91894 28.0987C9.96142 28.1442 10.0631 28.2844 10.1734 28.6641C10.2827 29.0404 10.3816 29.5839 10.4642 30.3701C10.7984 33.5514 10.8012 39.9581 10.8012 52.9374H12.8012ZM11.0844 80.4888C11.4135 80.2859 11.5612 79.962 11.6172 79.8326C11.695 79.6528 11.755 79.4485 11.8044 79.2439C11.9043 78.8298 11.9911 78.2821 12.0688 77.6287C12.2253 76.3142 12.3579 74.459 12.4658 72.14C12.6817 67.4961 12.8012 60.9215 12.8012 52.9374H10.8012C10.8012 60.9072 10.6818 67.4472 10.4679 72.0471C10.3608 74.3501 10.2308 76.1492 10.0829 77.3923C10.0084 78.0177 9.9326 78.4746 9.86016 78.7749C9.82334 78.9276 9.79485 79.0078 9.78172 79.0381C9.74683 79.1188 9.80124 78.9303 10.0348 78.7863L11.0844 80.4888ZM293.393 66.4549C292.569 62.0163 291.73 58.0756 291.042 55.3005C290.699 53.9183 290.387 52.8008 290.128 52.0504C290.003 51.6891 289.87 51.3511 289.727 51.1062C289.672 51.0113 289.536 50.7844 289.296 50.6242C289.158 50.532 288.907 50.41 288.58 50.4459C288.24 50.4833 288.008 50.6706 287.88 50.8241L289.413 52.1085C289.311 52.2301 289.108 52.3999 288.799 52.4339C288.504 52.4664 288.286 52.3549 288.185 52.2868C288.018 52.1751 287.963 52.0513 287.998 52.1117C288.037 52.1774 288.118 52.3584 288.238 52.704C288.467 53.3672 288.761 54.4144 289.101 55.782C289.777 58.5064 290.607 62.4057 291.426 66.82L293.393 66.4549ZM300.676 81.7337C299.297 81.7337 298.489 81.723 297.882 81.5294C297.395 81.3742 296.994 81.0837 296.574 80.2648C296.121 79.3841 295.698 77.9878 295.196 75.7263C294.698 73.484 294.141 70.4865 293.393 66.4549L291.426 66.82C292.172 70.8365 292.736 73.8752 293.243 76.1599C293.747 78.4255 294.214 80.0472 294.795 81.1785C295.407 82.3717 296.183 83.0872 297.274 83.4349C298.245 83.7444 299.416 83.7337 300.676 83.7337V81.7337ZM305.617 78.5491C305.462 79.5126 305.338 80.1542 305.177 80.6138C305.027 81.0436 304.877 81.2158 304.721 81.3219C304.533 81.4494 304.2 81.5723 303.516 81.646C302.836 81.7192 301.932 81.7337 300.676 81.7337V83.7337C301.917 83.7337 302.926 83.721 303.73 83.6345C304.528 83.5486 305.251 83.3792 305.844 82.9765C306.469 82.5524 306.826 81.9563 307.065 81.2744C307.293 80.6223 307.44 79.8088 307.592 78.8682L305.617 78.5491ZM310.69 38.6502C308.157 60.0027 306.468 73.2876 305.617 78.5491L307.592 78.8682C308.45 73.5556 310.145 60.2226 312.676 38.8858L310.69 38.6502ZM313.985 18.8139C313.851 19.069 313.737 19.4316 313.636 19.8028C313.528 20.2002 313.412 20.6976 313.29 21.276C313.047 22.4343 312.771 23.956 312.481 25.7296C311.901 29.2789 311.257 33.8703 310.69 38.6502L312.676 38.8858C313.241 34.1295 313.88 29.5677 314.455 26.0523C314.742 24.2935 315.012 22.8048 315.248 21.6881C315.365 21.1289 315.472 20.6727 315.566 20.3268C315.613 20.1539 315.655 20.0161 315.691 19.9111C315.708 19.8589 315.724 19.8186 315.736 19.7885C315.742 19.7737 315.747 19.7626 315.75 19.7547C315.754 19.7467 315.756 19.7434 315.755 19.744L313.985 18.8139ZM315 16.8013C315 16.6603 315.036 16.5697 315.02 16.6218C315.015 16.6381 315.002 16.6751 314.978 16.7374C314.931 16.86 314.857 17.0334 314.758 17.2492C314.562 17.6782 314.288 18.2356 313.985 18.8139L315.755 19.744C316.073 19.1394 316.364 18.5483 316.578 18.0794C316.684 17.8463 316.776 17.6335 316.843 17.4596C316.877 17.3737 316.909 17.2849 316.934 17.2013C316.949 17.1534 317 16.9887 317 16.8027L315 16.8013ZM309.175 17.4757C311.041 17.4757 312.731 17.5123 313.947 17.5705C314.559 17.5997 315.035 17.6337 315.35 17.6691C315.513 17.6875 315.601 17.7029 315.635 17.7106C315.66 17.7164 315.614 17.7086 315.542 17.6749C315.509 17.6596 315.412 17.6124 315.308 17.5158C315.206 17.4206 315 17.1802 315 16.8011L317 16.8028C317 16.4126 316.788 16.161 316.674 16.0548C316.559 15.9471 316.444 15.8889 316.388 15.8626C316.269 15.8071 316.153 15.7778 316.087 15.7624C315.938 15.7278 315.757 15.7023 315.573 15.6817C315.195 15.6391 314.669 15.6027 314.043 15.5728C312.786 15.5126 311.063 15.4757 309.175 15.4757V17.4757ZM304.148 18.3435C303.917 18.088 303.748 17.8818 303.633 17.7153C303.576 17.6333 303.538 17.5694 303.514 17.5216C303.489 17.4732 303.484 17.4525 303.485 17.4558C303.49 17.4774 303.512 17.6162 303.422 17.7695C303.349 17.8921 303.277 17.8965 303.384 17.8496C303.621 17.7452 304.152 17.6353 305.168 17.5661C306.148 17.4994 307.46 17.4757 309.175 17.4757V15.4757C307.455 15.4757 306.084 15.4991 305.033 15.5707C304.018 15.6397 303.169 15.7591 302.578 16.0191C302.271 16.1545 301.923 16.3749 301.7 16.7528C301.458 17.1614 301.455 17.5947 301.548 17.9558C301.635 18.2903 301.809 18.5949 301.989 18.8542C302.175 19.1221 302.407 19.4006 302.665 19.6857L304.148 18.3435ZM302.929 35.5942C303.644 31.2878 304.163 27.3235 304.429 24.343C304.562 22.8558 304.633 21.5943 304.631 20.6504C304.63 20.1813 304.611 19.7639 304.566 19.4252C304.543 19.2565 304.511 19.0829 304.461 18.9208C304.417 18.7788 304.332 18.5463 304.148 18.3435L302.665 19.6856C302.557 19.5656 302.536 19.4668 302.549 19.5068C302.555 19.5268 302.569 19.5836 302.583 19.6913C302.612 19.9053 302.63 20.2241 302.631 20.6549C302.633 21.5108 302.568 22.7035 302.437 24.1652C302.177 27.0826 301.665 30.9951 300.956 35.2667L302.929 35.5942ZM297.573 49.4346C297.659 49.5882 297.858 49.8796 298.242 50.01C298.684 50.1601 299.063 50.0002 299.276 49.85C299.471 49.7125 299.603 49.5375 299.686 49.4127C299.777 49.2757 299.858 49.1232 299.929 48.9691C300.208 48.3712 300.504 47.4251 300.812 46.2344C301.437 43.8216 302.172 40.152 302.929 35.5942L300.956 35.2667C300.203 39.8025 299.479 43.4049 298.876 45.7334C298.571 46.9133 298.312 47.7052 298.117 48.124C298.07 48.224 298.037 48.2806 298.02 48.3063C297.995 48.3441 298.025 48.2852 298.123 48.216C298.239 48.1341 298.527 47.9947 298.884 48.116C299.184 48.2176 299.303 48.431 299.317 48.456L297.573 49.4346ZM293.763 33.4749C294.517 37.3182 295.312 41.0095 295.986 43.8629C296.323 45.2887 296.631 46.5124 296.891 47.4441C297.02 47.9093 297.14 48.3099 297.246 48.6304C297.346 48.9283 297.455 49.2242 297.573 49.4346L299.317 48.456C299.318 48.4579 299.313 48.449 299.303 48.425C299.292 48.402 299.279 48.3705 299.262 48.3293C299.229 48.2463 299.19 48.1367 299.144 47.9984C299.052 47.7219 298.942 47.3564 298.817 46.9077C298.568 46.0115 298.266 44.8161 297.932 43.403C297.265 40.5787 296.475 36.9128 295.726 33.09L293.763 33.4749ZM293.228 17.393C292.656 17.754 292.233 18.2674 292.003 19.0319C291.792 19.7346 291.753 20.6189 291.826 21.7364C291.972 23.9771 292.605 27.5725 293.763 33.4749L295.726 33.09C294.56 27.1481 293.958 23.6914 293.822 21.6061C293.754 20.5606 293.812 19.9635 293.919 19.6079C294.007 19.3144 294.123 19.1929 294.296 19.0841L293.228 17.393ZM288.839 18.1139C291.045 18.1209 292.46 18.2226 293.162 18.383C293.332 18.4218 293.412 18.4538 293.434 18.4645C293.484 18.4892 293.303 18.4219 293.19 18.1735C293.031 17.8279 293.162 17.5244 293.243 17.4084C293.299 17.3275 293.331 17.3282 293.228 17.393L294.296 19.0841C294.482 18.9666 294.713 18.7959 294.882 18.5545C295.075 18.2781 295.23 17.8251 295.008 17.3409C294.831 16.954 294.499 16.7592 294.312 16.6675C294.095 16.5618 293.85 16.4885 293.607 16.4332C292.661 16.217 291.038 16.1209 288.846 16.1139L288.839 18.1139ZM284.389 18.1964C284.256 18.0358 284.179 17.9256 284.14 17.855C284.096 17.7756 284.136 17.8129 284.138 17.931C284.141 18.0981 284.067 18.2588 283.967 18.3575C283.9 18.4234 283.873 18.4109 283.993 18.3714C284.236 18.2912 284.712 18.2159 285.552 18.1695C286.368 18.1245 287.445 18.1099 288.84 18.1139L288.845 16.1139C287.444 16.1099 286.319 16.1242 285.442 16.1726C284.589 16.2196 283.881 16.3021 283.366 16.472C283.107 16.5576 282.806 16.6932 282.563 16.9337C282.286 17.207 282.131 17.5689 282.138 17.9671C282.144 18.3162 282.274 18.6146 282.394 18.8297C282.519 19.0537 282.682 19.2714 282.852 19.4756L284.389 18.1964ZM283.258 34.5159C284.334 29.2217 284.96 25.6353 285.171 23.1932C285.277 21.9721 285.285 20.9878 285.175 20.1948C285.065 19.3971 284.828 18.7239 284.389 18.1964L282.852 19.4756C282.971 19.6194 283.115 19.8926 283.194 20.468C283.274 21.048 283.279 21.8635 283.179 23.0205C282.978 25.3345 282.375 28.8172 281.298 34.1178L283.258 34.5159ZM278.649 49.0567C278.946 49.0567 279.164 48.9339 279.278 48.8517C279.396 48.767 279.479 48.6735 279.53 48.6096C279.633 48.4815 279.711 48.3389 279.769 48.2229C279.89 47.9807 280.014 47.6614 280.14 47.3001C280.394 46.567 280.697 45.5296 281.028 44.276C281.692 41.762 282.488 38.3074 283.258 34.5159L281.298 34.1178C280.533 37.8832 279.746 41.2985 279.094 43.7653C278.768 45.0019 278.48 45.9827 278.25 46.645C278.133 46.9814 278.043 47.2042 277.98 47.3296C277.946 47.3975 277.941 47.395 277.968 47.3613C277.981 47.3445 278.029 47.2866 278.114 47.2258C278.195 47.1674 278.381 47.0567 278.649 47.0567V49.0567ZM273.102 23.7031C273.66 28.9196 274.596 35.0604 275.497 39.9002C275.947 42.3183 276.391 44.4277 276.778 45.9413C276.97 46.6931 277.155 47.326 277.327 47.7834C277.411 48.0059 277.508 48.2316 277.622 48.4178C277.677 48.5086 277.764 48.6348 277.888 48.7497C278 48.8536 278.261 49.0567 278.649 49.0567V47.0567C278.986 47.0567 279.193 47.2323 279.247 47.2823C279.312 47.3432 279.337 47.3891 279.328 47.3741C279.312 47.349 279.268 47.2619 279.199 47.079C279.066 46.7256 278.902 46.177 278.716 45.4462C278.345 43.9946 277.91 41.9342 277.463 39.5342C276.571 34.7376 275.642 28.6485 275.091 23.4907L273.102 23.7031ZM275.108 17.3334C274.564 17.3334 274.055 17.538 273.673 17.9736C273.328 18.3667 273.152 18.8747 273.054 19.382C272.86 20.3917 272.903 21.8376 273.102 23.7031L275.091 23.4907C274.893 21.6375 274.885 20.4517 275.019 19.7593C275.085 19.4155 275.166 19.3049 275.177 19.2922C275.178 19.2914 275.173 19.2963 275.164 19.3035C275.154 19.3108 275.142 19.3181 275.128 19.3239C275.099 19.3366 275.087 19.3334 275.108 19.3334V17.3334ZM275.255 18.3226C275.254 18.3217 275.228 18.2962 275.198 18.2427C275.168 18.1876 275.129 18.0939 275.12 17.9676C275.097 17.6657 275.253 17.4512 275.363 17.3579C275.45 17.2853 275.498 17.2878 275.429 17.3045C275.372 17.3182 275.267 17.3334 275.108 17.3334V19.3334C275.383 19.3334 275.651 19.3082 275.897 19.2489C276.131 19.1926 276.413 19.0896 276.653 18.8867C276.918 18.6631 277.149 18.2936 277.114 17.8199C277.083 17.3995 276.854 17.0928 276.667 16.9066L275.255 18.3226ZM259.884 17.4036C259.884 17.7097 259.735 17.9151 259.645 18.0067C259.601 18.0522 259.562 18.0803 259.54 18.0948C259.518 18.1097 259.503 18.1168 259.501 18.1178C259.499 18.119 259.519 18.1092 259.573 18.0927C259.625 18.0768 259.694 18.0587 259.784 18.0393C260.156 17.959 260.73 17.8872 261.475 17.8306C262.951 17.7186 264.952 17.6767 267.003 17.7019C269.052 17.7271 271.124 17.819 272.741 17.9699C273.553 18.0455 274.228 18.1341 274.721 18.2316C274.969 18.2806 275.148 18.3275 275.265 18.3677C275.42 18.4209 275.358 18.426 275.255 18.3225L276.667 16.9066C276.428 16.6677 276.113 16.5443 275.915 16.4761C275.678 16.395 275.402 16.3275 275.109 16.2696C274.52 16.1531 273.768 16.0569 272.927 15.9785C271.24 15.8212 269.111 15.7277 267.027 15.702C264.944 15.6764 262.88 15.7182 261.324 15.8364C260.552 15.8949 259.869 15.9748 259.362 16.0844C259.117 16.1373 258.852 16.2095 258.627 16.3193C258.515 16.3735 258.357 16.4632 258.215 16.6089C258.065 16.7625 257.884 17.0322 257.884 17.4052L259.884 17.4036ZM259.994 17.3332C259.914 17.3332 259.866 17.3053 259.852 17.2936C259.846 17.2887 259.854 17.2929 259.864 17.3122C259.874 17.3332 259.884 17.3654 259.884 17.4036L257.884 17.4053C257.885 18.6264 259.005 19.3332 259.994 19.3332V17.3332ZM266.053 37.5715C264.635 28.957 263.778 24.0514 263.06 21.3042C262.706 19.9503 262.355 18.9884 261.909 18.3586C261.673 18.0238 261.387 17.7489 261.029 17.567C260.67 17.3846 260.312 17.3332 259.994 17.3332V19.3332C260.094 19.3332 260.12 19.3484 260.123 19.35C260.127 19.3521 260.181 19.3785 260.276 19.5133C260.495 19.8226 260.775 20.4725 261.125 21.8101C261.814 24.4455 262.655 29.2401 264.079 37.8961L266.053 37.5715ZM270.619 64.8928C269.546 58.6081 267.491 46.3129 266.053 37.5714L264.079 37.8961C265.518 46.6402 267.573 58.9396 268.647 65.2295L270.619 64.8928ZM271.851 78.5873C271.956 78.3158 271.992 77.9874 272.01 77.7109C272.03 77.4043 272.033 77.0376 272.023 76.6277C272.003 75.8059 271.929 74.7528 271.811 73.5473C271.576 71.133 271.159 68.0559 270.619 64.8928L268.647 65.2295C269.181 68.3537 269.591 71.3828 269.821 73.7416C269.936 74.9225 270.005 75.9226 270.024 76.6768C270.033 77.0548 270.029 77.3566 270.014 77.5813C269.998 77.8361 269.972 77.9016 269.985 77.8688L271.851 78.5873ZM274.974 79.7291C273.366 79.464 272.458 79.1717 272.017 78.8899C271.816 78.7617 271.805 78.6926 271.813 78.7165C271.827 78.7529 271.795 78.7341 271.851 78.5871L269.985 77.869C269.805 78.3353 269.739 78.8677 269.935 79.4026C270.125 79.9248 270.512 80.3013 270.94 80.5752C271.758 81.0977 273.032 81.4359 274.648 81.7025L274.974 79.7291ZM281.258 80.1156C280.864 80.3446 280.278 80.4468 279.211 80.3625C278.143 80.2781 276.804 80.031 274.974 79.7291L274.648 81.7025C276.403 81.9919 277.875 82.2632 279.054 82.3563C280.233 82.4494 281.329 82.388 282.264 81.8442L281.258 80.1156ZM284.591 66.7876C283.853 71.4717 283.384 74.6446 282.863 76.8008C282.329 79.0123 281.812 79.793 281.258 80.1156L282.264 81.8442C283.616 81.0574 284.275 79.473 284.807 77.2702C285.352 75.012 285.839 71.7213 286.567 67.0988L284.591 66.7876ZM287.879 50.8242C287.749 50.9801 287.671 51.1587 287.633 51.2503C287.583 51.3688 287.536 51.5043 287.491 51.6461C287.4 51.9315 287.3 52.3009 287.193 52.7347C286.979 53.6056 286.724 54.7908 286.445 56.1997C285.885 59.0207 285.223 62.776 284.591 66.7876L286.567 67.0988C287.196 63.1068 287.854 59.378 288.406 56.5886C288.683 55.1923 288.932 54.0408 289.135 53.2126C289.238 52.7968 289.325 52.4762 289.397 52.252C289.433 52.1391 289.46 52.0649 289.478 52.0217C289.507 51.9515 289.49 52.016 289.413 52.1084L287.879 50.8242ZM51.8776 77.2008C48.9675 76.1335 45.9813 73.048 43.3878 68.032L41.6112 68.9506C44.2936 74.1384 47.5838 77.7563 51.189 79.0785L51.8776 77.2008ZM65.9382 76.2905C64.3656 77.1017 61.7258 77.6645 58.9608 77.8431C56.1947 78.0219 53.5176 77.8023 51.8776 77.2008L51.189 79.0785C53.2132 79.821 56.2161 80.0247 59.0898 79.839C61.9646 79.6532 64.9243 79.0639 66.855 78.068L65.9382 76.2905ZM74.9819 35.0988C77.0175 44.7847 77.0367 53.9601 75.3783 61.2927C73.7125 68.658 70.4013 73.9885 65.9382 76.2905L66.855 78.068C72.0732 75.3765 75.6034 69.3634 77.329 61.7339C79.062 54.0716 79.0225 44.6007 76.9392 34.6875L74.9819 35.0988ZM58.4958 17.682C63.0075 17.682 66.4295 19.0017 69.0583 21.7428C71.7238 24.5223 73.6717 28.8639 74.9819 35.0988L76.9392 34.6875C75.5949 28.2906 73.5401 23.5267 70.5017 20.3585C67.4266 17.1519 63.4436 15.682 58.4958 15.682V17.682ZM43.5629 27.1881C46.5675 20.9971 51.7964 17.682 58.4958 17.682V15.682C51.0085 15.682 45.093 19.4546 41.7636 26.3149L43.5629 27.1881ZM40.996 47.8362C41.0454 34.4657 41.4575 31.526 43.5629 27.1881L41.7636 26.3148C39.4329 31.117 39.0452 34.4989 38.996 47.8288L40.996 47.8362ZM43.3878 68.032C41.3141 64.0214 40.946 61.3819 40.996 47.8362L38.996 47.8288C38.9463 61.303 39.2781 64.4382 41.6112 68.9506L43.3878 68.032ZM239.152 76.5553C235.589 76.2473 232.289 75.9022 229.845 75.595C228.62 75.4411 227.621 75.298 226.914 75.1751C226.558 75.1133 226.293 75.0594 226.116 75.0152C226.026 74.9926 225.978 74.9774 225.96 74.971C225.952 74.9678 225.966 74.9725 225.994 74.9869C226.01 74.9951 226.1 75.0405 226.197 75.1372L224.785 76.5533C224.902 76.67 225.023 76.7363 225.081 76.7663C225.152 76.8024 225.22 76.8297 225.275 76.8499C225.386 76.8904 225.51 76.9252 225.631 76.9555C225.878 77.0171 226.198 77.0807 226.572 77.1456C227.324 77.2763 228.359 77.4239 229.595 77.5793C232.071 77.8906 235.398 78.2383 238.98 78.5479L239.152 76.5553ZM254.308 77.8495C253.117 77.7553 246.299 77.173 239.152 76.5553L238.98 78.5479C246.122 79.1652 252.95 79.7483 254.15 79.8432L254.308 77.8495ZM255.442 76.8328C255.435 77.2459 255.295 77.4913 255.143 77.6284C254.99 77.7661 254.727 77.8827 254.308 77.8495L254.15 79.8432C255.025 79.9125 255.857 79.6768 256.482 79.114C257.107 78.5505 257.426 77.7471 257.442 76.8692L255.442 76.8328ZM257.89 67.5583C257.236 69.4495 256.636 71.416 256.196 73.0654C255.769 74.6655 255.456 76.0928 255.442 76.8323L257.442 76.8697C257.451 76.4172 257.688 75.2312 258.128 73.5812C258.555 71.9805 259.141 70.0602 259.78 68.2123L257.89 67.5583ZM260.003 61.318C259.809 61.1243 259.771 60.9159 259.766 60.892C259.755 60.8391 259.758 60.815 259.758 60.841C259.757 60.8896 259.749 60.9968 259.721 61.1784C259.666 61.5333 259.554 62.0476 259.388 62.6943C259.056 63.9805 258.531 65.7073 257.89 67.5583L259.78 68.2123C260.434 66.3243 260.976 64.5444 261.325 63.1933C261.498 62.5213 261.628 61.9343 261.698 61.4846C261.732 61.2641 261.757 61.0433 261.758 60.8481C261.758 60.7521 261.753 60.6272 261.726 60.4956C261.705 60.3931 261.643 60.1285 261.416 59.902L260.003 61.318ZM256.931 64.2083C257.993 63.3175 258.997 62.5715 259.753 62.0873C260.136 61.8417 260.425 61.6836 260.609 61.6041C260.707 61.5619 260.726 61.5636 260.69 61.5694C260.671 61.5724 260.594 61.5836 260.486 61.5665C260.372 61.5488 260.178 61.492 260.003 61.318L261.416 59.902C261.016 59.5031 260.507 59.5733 260.376 59.5941C260.172 59.6265 259.976 59.699 259.817 59.7677C259.486 59.9104 259.092 60.1355 258.674 60.4032C257.827 60.9458 256.753 61.7471 255.646 62.6763L256.931 64.2083ZM245.935 67.3814C248.63 67.5378 250.519 67.5168 252.181 67.0423C253.87 66.5597 255.23 65.6363 256.931 64.2083L255.646 62.6764C254.008 64.0509 252.91 64.754 251.631 65.1192C250.324 65.4925 248.735 65.5405 246.051 65.3847L245.935 67.3814ZM238.269 58.9454C238.361 60.7046 238.432 62.0979 238.593 63.1648C238.752 64.2245 239.022 65.1464 239.643 65.8385C240.281 66.5495 241.15 66.8638 242.135 67.0426C243.109 67.2192 244.373 67.2907 245.935 67.3814L246.051 65.3847C244.436 65.2911 243.317 65.2244 242.492 65.0747C241.68 64.9273 241.333 64.7275 241.131 64.5022C240.912 64.258 240.714 63.8217 240.571 62.8671C240.428 61.9196 240.36 60.6424 240.266 58.841L238.269 58.9454ZM244.296 50.772C242.978 50.772 241.877 50.7694 241.033 50.894C240.166 51.0221 239.344 51.3139 238.8 52.0853C238.303 52.7894 238.17 53.7208 238.137 54.7443C238.103 55.7981 238.177 57.1838 238.269 58.9454L240.266 58.841C240.172 57.042 240.106 55.7573 240.136 54.8082C240.167 53.8289 240.302 53.4251 240.433 53.239C240.517 53.1203 240.685 52.9671 241.325 52.8726C241.989 52.7746 242.913 52.772 244.296 52.772V50.772ZM251.893 52.5501C251.541 52.1994 251.04 51.9437 250.548 51.7503C250.031 51.5474 249.419 51.3734 248.759 51.231C247.438 50.9462 245.849 50.772 244.296 50.772V52.772C245.713 52.772 247.16 52.9322 248.337 53.1861C248.926 53.3131 249.429 53.4595 249.817 53.6119C250.229 53.7738 250.423 53.9082 250.481 53.9662L251.893 52.5501ZM251.684 51.0892C251.683 51.7879 251.662 52.3053 251.618 52.6743C251.597 52.8578 251.572 52.9839 251.55 53.0659C251.525 53.1546 251.515 53.15 251.546 53.1048C251.586 53.0475 251.695 52.9247 251.895 52.8679C252.085 52.8137 252.226 52.8575 252.261 52.8706C252.284 52.8793 252.176 52.8322 251.893 52.5501L250.481 53.9661C250.777 54.262 251.146 54.5882 251.557 54.7429C251.787 54.829 252.1 54.889 252.443 54.7913C252.794 54.6911 253.037 54.4652 253.191 54.2423C253.458 53.8565 253.553 53.3451 253.605 52.9074C253.661 52.423 253.683 51.8146 253.684 51.0925L251.684 51.0892ZM253.495 43.7452C252.491 45.6637 251.689 48.919 251.684 51.0888L253.684 51.0929C253.688 49.2438 254.413 46.3052 255.267 44.6723L253.495 43.7452ZM247.616 42.5861C249.757 42.4333 251.33 42.3212 252.477 42.2869C253.049 42.2697 253.491 42.2728 253.83 42.2965C254.18 42.321 254.358 42.364 254.435 42.3936C254.497 42.4172 254.376 42.385 254.299 42.2173C254.234 42.0754 254.279 42.0009 254.251 42.1233C254.183 42.4128 253.948 42.8793 253.495 43.7452L255.267 44.6723C255.659 43.9239 256.057 43.1797 256.198 42.5802C256.273 42.258 256.317 41.8194 256.117 41.3836C255.905 40.922 255.517 40.6661 255.151 40.526C254.801 40.3918 254.393 40.331 253.969 40.3014C253.535 40.271 253.017 40.2698 252.417 40.2877C251.219 40.3236 249.595 40.4397 247.473 40.5911L247.616 42.5861ZM247.619 42.5858L247.619 42.5858L247.47 40.5914L247.47 40.5914L247.619 42.5858ZM238.019 34.5999C238.019 36.4713 238.017 37.9712 238.16 39.1073C238.303 40.2416 238.614 41.2592 239.451 41.9447C240.257 42.606 241.352 42.7871 242.588 42.8213C243.848 42.8561 245.506 42.7366 247.616 42.5861L247.473 40.5912C245.32 40.7449 243.781 40.8535 242.643 40.8221C241.481 40.79 240.978 40.6104 240.719 40.398C240.489 40.21 240.268 39.8412 240.144 38.8577C240.021 37.8762 240.019 36.5272 240.019 34.5999H238.019ZM238.019 34.5998V34.5999H240.019V34.5998H238.019ZM239.285 26.8865C238.52 27.5607 238.26 28.5713 238.14 29.7164C238.017 30.8856 238.019 32.4865 238.019 34.5998H240.019C240.019 32.4362 240.02 30.9641 240.129 29.9252C240.241 28.8623 240.445 28.5298 240.607 28.3871L239.285 26.8865ZM244.216 26.0026C243.103 26.0026 242.149 26.0011 241.385 26.0883C240.62 26.1758 239.874 26.3675 239.285 26.8865L240.607 28.3871C240.738 28.272 240.991 28.1465 241.613 28.0754C242.236 28.0041 243.057 28.0026 244.216 28.0026V26.0026ZM253.109 29.0544C250.749 26.8757 248.065 26.0026 244.216 26.0026V28.0026C247.701 28.0026 249.853 28.7699 251.753 30.5239L253.109 29.0544ZM254.469 30.857C254.878 30.6235 255.213 30.8382 255.111 30.7876C255.079 30.7718 254.981 30.7116 254.788 30.557C254.411 30.2554 253.877 29.7631 253.109 29.0544L251.753 30.5239C252.495 31.2087 253.092 31.7614 253.538 32.1181C253.756 32.2927 253.991 32.4648 254.224 32.58C254.386 32.6603 254.916 32.9045 255.46 32.5941L254.469 30.857ZM253.61 28.7713C253.829 29.7921 253.981 30.5019 254.049 30.9791C254.084 31.2238 254.085 31.3389 254.083 31.3743C254.074 31.4877 254.06 31.0904 254.469 30.857L255.46 32.5941C256.004 32.2839 256.064 31.7034 256.077 31.5228C256.097 31.264 256.068 30.974 256.029 30.6977C255.949 30.133 255.777 29.3376 255.565 28.3515L253.61 28.7713ZM254.79 20.1834C253.386 22.9908 252.983 25.8496 253.61 28.7713L255.565 28.3515C255.04 25.9049 255.364 23.5079 256.579 21.078L254.79 20.1834ZM256.644 16.587C256.645 16.4757 256.665 16.3911 256.67 16.3727C256.677 16.3403 256.685 16.3158 256.688 16.3044C256.692 16.2913 256.696 16.2816 256.698 16.2765C256.7 16.2711 256.701 16.2675 256.701 16.2662C256.702 16.2641 256.699 16.273 256.688 16.2986C256.666 16.3471 256.632 16.4228 256.583 16.527C256.487 16.7334 256.345 17.0287 256.169 17.3928C255.816 18.1199 255.328 19.1088 254.79 20.1834L256.579 21.078C257.119 19.9985 257.61 19.0023 257.968 18.2664C258.146 17.8991 258.293 17.5934 258.395 17.3735C258.446 17.2646 258.489 17.1708 258.52 17.0991C258.536 17.0644 258.552 17.0255 258.566 16.9886C258.573 16.9712 258.584 16.9421 258.595 16.9079C258.6 16.8911 258.609 16.862 258.618 16.8259C258.623 16.8037 258.643 16.7162 258.644 16.6029L256.644 16.587ZM241.505 17.4756C245.941 17.4756 249.974 17.489 252.896 17.5107C254.358 17.5215 255.539 17.5343 256.354 17.5485C256.762 17.5556 257.073 17.5629 257.279 17.5703C257.384 17.5741 257.452 17.5776 257.489 17.5802C257.511 17.5818 257.503 17.5818 257.48 17.5785C257.475 17.5779 257.426 17.5712 257.361 17.5524C257.336 17.5453 257.246 17.519 257.141 17.4584C257.089 17.4282 256.985 17.3622 256.885 17.2455C256.779 17.1217 256.642 16.8968 256.644 16.5875L258.644 16.6024C258.646 16.2926 258.509 16.0671 258.403 15.9428C258.302 15.8256 258.198 15.7591 258.145 15.7284C258.038 15.6667 257.945 15.6394 257.917 15.6313C257.845 15.6106 257.785 15.6018 257.766 15.5991C257.716 15.5918 257.666 15.5878 257.633 15.5854C257.559 15.58 257.461 15.5756 257.351 15.5716C257.125 15.5636 256.8 15.5559 256.388 15.5488C255.564 15.5344 254.375 15.5215 252.911 15.5107C249.982 15.489 245.945 15.4756 241.505 15.4756V17.4756ZM227.127 18.1012C226.753 17.8706 226.543 17.7028 226.444 17.5975C226.312 17.4573 226.541 17.6198 226.456 17.9732C226.378 18.2961 226.14 18.3249 226.371 18.2246C226.549 18.1472 226.876 18.0543 227.41 17.9655C229.562 17.6078 233.989 17.4756 241.505 17.4756V15.4756C234.048 15.4756 229.433 15.6018 227.082 15.9925C226.491 16.0907 225.976 16.2156 225.574 16.3902C225.225 16.5419 224.668 16.8569 224.512 17.5038C224.348 18.1814 224.74 18.7058 224.988 18.969C225.269 19.2672 225.657 19.5444 226.078 19.8037L227.127 18.1012ZM227.081 74.5041C227.304 74.2815 227.422 73.9963 227.487 73.8178C227.564 73.6058 227.629 73.3588 227.686 73.0949C227.801 72.5645 227.903 71.8734 227.996 71.061C228.182 69.4309 228.338 67.2238 228.467 64.6464C228.723 59.4866 228.868 52.7817 228.896 46.1065C228.924 39.4316 228.834 32.7716 228.62 27.7018C228.513 25.1699 228.374 23.0176 228.201 21.453C228.115 20.6746 228.017 20.0143 227.904 19.5162C227.848 19.2699 227.781 19.0306 227.696 18.8248C227.636 18.6772 227.48 18.3184 227.127 18.1012L226.078 19.8037C225.842 19.6586 225.799 19.4709 225.847 19.5871C225.871 19.6451 225.909 19.7623 225.954 19.9593C226.042 20.3477 226.13 20.9207 226.213 21.673C226.379 23.17 226.515 25.2693 226.622 27.7863C226.834 32.8144 226.924 39.4412 226.896 46.0982C226.868 52.7552 226.724 59.4276 226.469 64.547C226.342 67.1091 226.187 69.267 226.008 70.8343C225.919 71.6206 225.825 72.2363 225.731 72.6718C225.684 72.8908 225.641 73.0415 225.607 73.1357C225.56 73.2636 225.563 73.1933 225.669 73.0881L227.081 74.5041ZM226.197 75.1372C226.377 75.317 226.38 75.5097 226.379 75.5352C226.378 75.5589 226.377 75.5161 226.427 75.3987C226.526 75.1696 226.744 74.8399 227.081 74.5041L225.669 73.088C225.197 73.5583 224.813 74.0926 224.591 74.6063C224.481 74.8602 224.39 75.1586 224.38 75.4706C224.37 75.7845 224.443 76.2128 224.785 76.5532L226.197 75.1372ZM83.9428 74.3635C84.2276 73.9579 84.4286 73.3795 84.5879 72.7762C84.7552 72.1419 84.9055 71.3608 85.0415 70.4667C85.3138 68.6763 85.5392 66.3621 85.7197 63.7193C86.0809 58.4297 86.2666 51.7571 86.2758 45.1853C86.2851 38.6144 86.118 32.1232 85.7708 27.1975C85.5975 24.7391 85.3775 22.6444 85.1065 21.1171C84.9719 20.3583 84.8181 19.7004 84.6364 19.196C84.546 18.9452 84.4357 18.6948 84.2946 18.4786C84.1651 18.2801 83.9349 17.9937 83.5592 17.8499L82.8443 19.7178C82.6445 19.6413 82.5845 19.5175 82.6196 19.5714C82.6431 19.6074 82.6917 19.6989 82.7547 19.8738C82.8797 20.2207 83.0101 20.7495 83.1373 21.4665C83.3899 22.8904 83.6041 24.9032 83.7757 27.3381C84.1184 32.1992 84.285 38.6388 84.2758 45.1825C84.2666 51.7253 84.0817 58.351 83.7243 63.5831C83.5456 66.2012 83.3247 68.4537 83.0643 70.1659C82.9339 71.0231 82.7962 71.7272 82.6541 72.2659C82.5038 72.8354 82.3737 73.1177 82.306 73.2142L83.9428 74.3635ZM83.9564 74.3436L83.9564 74.3435L82.2923 73.2341L82.2923 73.2342L83.9564 74.3436ZM90.574 75.5414C88.2208 75.5414 86.4818 75.5412 85.2133 75.4989C83.8964 75.455 83.2414 75.366 82.9525 75.2593C82.8227 75.2113 82.9483 75.223 83.0436 75.4046C83.1484 75.6042 83.0845 75.7512 83.105 75.6879C83.1274 75.6186 83.1931 75.4796 83.3498 75.2321C83.5008 74.9933 83.6967 74.714 83.9427 74.3636L82.3059 73.2142C82.0688 73.552 81.8419 73.8747 81.6596 74.1628C81.4829 74.4421 81.3048 74.7547 81.2021 75.0724C81.0973 75.3962 81.0268 75.8657 81.2728 76.3342C81.5092 76.7845 81.9235 77.0113 82.2594 77.1353C82.9016 77.3726 83.8851 77.4557 85.1466 77.4978C86.4566 77.5415 88.2361 77.5414 90.574 77.5414V75.5414ZM98.9566 76.0637C98.9566 75.7114 99.1381 75.4798 99.2389 75.3794C99.338 75.2808 99.4318 75.2323 99.4628 75.2169C99.5293 75.1838 99.5655 75.1789 99.5253 75.1888C99.4607 75.2047 99.3246 75.229 99.0973 75.2562C98.6548 75.3092 97.9925 75.3594 97.1496 75.4023C95.4707 75.4878 93.1428 75.5414 90.574 75.5414V77.5414C93.1658 77.5414 95.5291 77.4874 97.2514 77.3997C98.1091 77.356 98.8249 77.3032 99.3353 77.242C99.5844 77.2122 99.8185 77.1765 100.005 77.1304C100.09 77.1094 100.222 77.0728 100.353 77.0078C100.416 76.9764 100.534 76.9117 100.65 76.7969C100.767 76.6803 100.957 76.4324 100.957 76.0637H98.9566ZM97.2156 72.502C97.7196 73.4659 98.1757 74.3913 98.5036 75.1028C98.6681 75.4599 98.7961 75.7538 98.8808 75.9673C98.9237 76.0752 98.9506 76.1505 98.9653 76.1968C98.9936 76.2862 98.9566 76.2053 98.9566 76.0637H100.957C100.957 75.8564 100.894 75.6614 100.872 75.5938C100.837 75.4832 100.791 75.3586 100.74 75.2293C100.636 74.9684 100.492 74.6382 100.32 74.2658C99.9755 73.5182 99.5042 72.5625 98.988 71.5753L97.2156 72.502ZM95.2394 63.3699C95.2416 64.8651 95.4635 66.6165 95.812 68.2385C96.1581 69.8499 96.6458 71.4122 97.2156 72.502L98.988 71.5753C98.5377 70.7141 98.0964 69.3502 97.7673 67.8185C97.4407 66.2976 97.2414 64.6894 97.2394 63.367L95.2394 63.3699ZM101.401 56.4611C100.102 56.6555 99.0485 56.8141 98.2392 57.0252C97.429 57.2366 96.6988 57.5387 96.1677 58.1306C95.6301 58.7299 95.4247 59.482 95.3303 60.2939C95.2369 61.0971 95.2375 62.1211 95.2394 63.37L97.2394 63.367C97.2375 62.0733 97.2402 61.1849 97.3169 60.525C97.3926 59.8738 97.5255 59.6122 97.6564 59.4662C97.7939 59.313 98.0627 59.1382 98.7441 58.9605C99.4264 58.7825 100.357 58.6395 101.697 58.4391L101.401 56.4611ZM117.487 37.2757C117.577 42.9526 116.235 47.3134 113.602 50.4513C110.971 53.5876 106.943 55.6323 101.401 56.4611L101.697 58.4391C107.571 57.5606 112.104 55.3492 115.135 51.7367C118.164 48.1258 119.582 43.2452 119.486 37.2438L117.487 37.2757ZM111.293 21.0607C115.08 23.887 117.363 29.5016 117.487 37.2757L119.486 37.2438C119.358 29.1863 116.992 22.8181 112.489 19.4579L111.293 21.0607ZM95.3581 18.0937C106.052 18.6001 108.81 19.2077 111.293 21.0607L112.489 19.4579C109.429 17.1745 106.008 16.5958 95.4527 16.0959L95.3581 18.0937ZM83.5592 17.8499C83.0375 17.6502 82.7022 17.4868 82.5122 17.3657C82.4162 17.3045 82.3966 17.2786 82.4112 17.295C82.4206 17.3055 82.5392 17.4392 82.5519 17.6837C82.5665 17.9664 82.4305 18.1631 82.345 18.2477C82.2777 18.3142 82.2407 18.3171 82.311 18.2879C82.4473 18.2314 82.7331 18.156 83.2259 18.0878C85.188 17.8162 89.2368 17.8038 95.358 18.0937L95.4527 16.0959C89.3563 15.8072 85.1258 15.8058 82.9517 16.1067C82.4105 16.1816 81.9212 16.2843 81.5445 16.4407C81.3584 16.5179 81.1304 16.6358 80.9382 16.8261C80.7277 17.0344 80.5326 17.3633 80.5545 17.7869C80.5744 18.1722 80.7667 18.4553 80.9164 18.6238C81.0714 18.7981 81.2588 18.9385 81.4371 19.0521C81.7956 19.2807 82.2773 19.5007 82.8443 19.7178L83.5592 17.8499ZM208.449 74.6558C207.564 74.5459 206.934 74.4492 206.49 74.3409C206.003 74.2219 205.937 74.1309 205.976 74.1731C206.121 74.3306 206.05 74.5005 206.087 74.3744C206.14 74.1977 206.29 73.9013 206.609 73.3907L204.914 72.3294C204.599 72.833 204.309 73.3374 204.17 73.8049C204.016 74.3231 204.002 74.9808 204.504 75.5268C204.9 75.9576 205.492 76.1557 206.016 76.2838C206.583 76.4225 207.317 76.5306 208.202 76.6405L208.449 74.6558ZM218.447 75.3436C215.114 75.2351 210.607 74.9239 208.449 74.6558L208.202 76.6405C210.443 76.9189 215.015 77.233 218.382 77.3426L218.447 75.3436ZM221.62 74.8503C222.169 75.4552 222.466 75.8021 222.591 76.0164C222.658 76.131 222.575 76.0451 222.591 75.8447C222.615 75.536 222.821 75.3641 222.907 75.3173C222.945 75.2965 222.904 75.3273 222.68 75.357C222.477 75.3842 222.192 75.4022 221.802 75.4092C221.023 75.4232 219.934 75.392 218.447 75.3436L218.382 77.3426C219.853 77.3905 220.998 77.4239 221.838 77.4089C222.259 77.4013 222.631 77.3814 222.945 77.3395C223.24 77.3001 223.577 77.2307 223.869 77.0708C224.208 76.8848 224.543 76.5349 224.585 76.0016C224.618 75.5765 224.442 75.2194 224.319 75.0083C224.064 74.5713 223.594 74.0495 223.101 73.5064L221.62 74.8503ZM211.945 52.2628C211.945 52.7643 212.091 53.4476 212.29 54.1773C212.497 54.9379 212.792 55.8512 213.148 56.8578C213.859 58.8727 214.828 61.3057 215.866 63.7223C216.904 66.1391 218.018 68.5531 219.021 70.5294C220 72.4585 220.935 74.0957 221.62 74.8503L223.101 73.5064C222.628 72.9855 221.808 71.6001 220.804 69.6241C219.825 67.6952 218.73 65.3214 217.703 62.9328C216.677 60.5438 215.726 58.1535 215.033 56.192C214.687 55.2103 214.409 54.3471 214.219 53.651C214.021 52.924 213.945 52.4704 213.945 52.2628H211.945ZM214.247 49.5335C213.503 49.5335 212.906 49.9393 212.529 50.4399C212.151 50.9411 211.945 51.589 211.945 52.2628H213.945C213.945 51.9855 214.031 51.7687 214.126 51.6431C214.221 51.5168 214.275 51.5335 214.247 51.5335V49.5335ZM219.367 35.9994C219.352 38.113 218.365 41.5978 217.093 44.6173C216.463 46.1117 215.789 47.4328 215.174 48.3631C214.864 48.8316 214.593 49.1654 214.375 49.3704C214.119 49.6104 214.087 49.5335 214.247 49.5335V51.5335C214.886 51.5335 215.404 51.1473 215.744 50.8279C216.121 50.4734 216.491 49.9977 216.842 49.4659C217.55 48.3956 218.279 46.9526 218.936 45.3938C220.236 42.3068 221.349 38.5281 221.367 36.0136L219.367 35.9994ZM212.589 20.783C214.275 21.9245 215.993 24.2914 217.292 27.1802C218.581 30.0484 219.386 33.2723 219.367 35.9997L221.367 36.0133C221.388 32.9297 220.491 29.4192 219.116 26.36C217.749 23.3214 215.839 20.5681 213.711 19.127L212.589 20.783ZM196.444 18.0937C201.477 18.3273 204.965 18.6175 207.493 19.0515C210.016 19.4847 211.505 20.0491 212.589 20.783L213.711 19.127C212.296 18.1694 210.495 17.5375 207.832 17.0804C205.174 16.6241 201.581 16.3299 196.537 16.0959L196.444 18.0937ZM184.912 18.1012C184.537 17.8698 184.309 17.6943 184.189 17.5746C184.028 17.4139 184.214 17.5136 184.192 17.8187C184.165 18.2096 183.867 18.3093 183.994 18.248C184.095 18.1996 184.328 18.1253 184.768 18.0579C186.534 17.7868 190.25 17.8064 196.444 18.0937L196.537 16.0959C190.404 15.8114 186.468 15.7734 184.464 16.081C183.961 16.1582 183.495 16.2684 183.126 16.446C182.784 16.6108 182.246 16.9782 182.197 17.6804C182.154 18.2968 182.537 18.7514 182.777 18.9911C183.059 19.2717 183.438 19.542 183.863 19.8037L184.912 18.1012ZM186.629 45.5796C186.629 37.6198 186.509 31.0634 186.293 26.4315C186.186 24.1187 186.053 22.268 185.896 20.9564C185.819 20.3045 185.732 19.7579 185.632 19.3445C185.583 19.1403 185.522 18.9361 185.445 18.7566C185.388 18.6271 185.241 18.3039 184.912 18.1013L183.863 19.8037C183.629 19.66 183.575 19.472 183.61 19.5521C183.623 19.5822 183.651 19.6622 183.688 19.8144C183.76 20.1138 183.836 20.5695 183.91 21.1934C184.058 22.4334 184.188 24.2278 184.296 26.5247C184.51 31.1124 184.629 37.6342 184.629 45.5796H186.629ZM184.912 73.058C185.241 72.8554 185.388 72.5322 185.445 72.4026C185.522 72.2231 185.583 72.019 185.632 71.8147C185.732 71.4014 185.819 70.8547 185.896 70.2028C186.053 68.8912 186.186 67.0406 186.293 64.7277C186.509 60.0958 186.629 53.5394 186.629 45.5796H184.629C184.629 53.525 184.51 60.0468 184.296 64.6345C184.188 66.9314 184.058 68.7259 183.91 69.9659C183.836 70.5897 183.76 71.0454 183.688 71.3449C183.651 71.4971 183.623 71.577 183.61 71.6071C183.575 71.6872 183.629 71.4993 183.863 71.3555L184.912 73.058ZM192.65 74.3029C190.503 74.3029 188.733 74.2359 187.338 74.1071C185.925 73.9766 184.963 73.7879 184.395 73.5751C184.107 73.467 184.005 73.3831 183.989 73.3675C183.988 73.3665 184.019 73.3977 184.045 73.4657C184.073 73.539 184.079 73.6172 184.07 73.6837C184.054 73.7932 184.012 73.7723 184.162 73.6182C184.301 73.4761 184.54 73.2875 184.912 73.058L183.863 71.3555C183.417 71.6304 183.029 71.9169 182.732 72.22C182.448 72.5111 182.161 72.9055 182.09 73.3998C182.01 73.9607 182.234 74.439 182.572 74.7787C182.878 75.0865 183.286 75.295 183.694 75.4479C184.518 75.7569 185.696 75.9639 187.154 76.0986C188.632 76.2351 190.468 76.3029 192.65 76.3029V74.3029ZM199.468 73.8029C199.694 74.0552 199.86 74.2501 199.975 74.4072C200.102 74.5797 200.107 74.6268 200.096 74.5866C200.07 74.4833 200.07 74.2515 200.235 74.0624C200.333 73.9493 200.395 73.9698 200.205 74.0245C199.84 74.1289 199.122 74.2084 197.837 74.2523C196.585 74.2951 194.894 74.3029 192.65 74.3029V76.3029C194.888 76.3029 196.613 76.2953 197.906 76.2511C199.166 76.208 200.121 76.1289 200.756 75.9471C201.064 75.8586 201.457 75.7039 201.742 75.3768C202.094 74.9736 202.137 74.4888 202.033 74.0865C201.945 73.7472 201.753 73.4494 201.588 73.2239C201.411 72.983 201.189 72.7269 200.957 72.4682L199.468 73.8029ZM198.732 53.9408C198.028 54.2093 197.645 54.8795 197.425 55.4252C197.184 56.0214 197.021 56.7631 196.911 57.5658C196.691 59.1808 196.664 61.2341 196.793 63.318C196.921 65.4063 197.208 67.5703 197.635 69.4123C197.848 70.3331 198.1 71.1904 198.393 71.9255C198.68 72.647 199.03 73.3141 199.468 73.8029L200.957 72.4681C200.746 72.2325 200.501 71.8139 200.251 71.1864C200.007 70.5724 199.782 69.8175 199.584 68.9609C199.187 67.2482 198.912 65.197 198.789 63.1951C198.665 61.1887 198.697 59.2765 198.893 57.8359C198.992 57.1108 199.126 56.5523 199.279 56.1739C199.452 55.745 199.559 55.7662 199.445 55.8096L198.732 53.9408ZM205.846 62.6784C205.232 60.6531 204.718 59.0473 204.253 57.7995C203.792 56.5653 203.353 55.6096 202.865 54.929C202.36 54.223 201.739 53.7298 200.923 53.593C200.171 53.4671 199.421 53.6783 198.732 53.9408L199.445 55.8096C200.07 55.5714 200.394 55.5324 200.592 55.5656C200.726 55.5879 200.931 55.6631 201.24 56.0941C201.567 56.5504 201.932 57.3 202.379 58.4985C202.821 59.6835 203.319 61.2379 203.933 63.2593L205.846 62.6784ZM206.609 73.3907C207.31 72.2711 207.568 71.0576 207.421 69.3855C207.278 67.7669 206.75 65.654 205.846 62.6784L203.933 63.2593C204.836 66.2352 205.306 68.1707 205.428 69.5612C205.546 70.8982 205.337 71.6546 204.914 72.3294L206.609 73.3907ZM141.93 74.1375C141.93 74.0773 141.97 73.8885 142.136 73.6305C142.293 73.386 142.502 73.1782 142.697 73.058L141.647 71.3555C141.159 71.6562 140.747 72.0933 140.454 72.5487C140.17 72.9906 139.93 73.5566 139.93 74.1375H141.93ZM153.47 74.3029C149.986 74.3029 146.884 74.1749 144.665 73.9687C143.55 73.865 142.688 73.7443 142.122 73.6182C141.83 73.5533 141.669 73.4982 141.602 73.4671C141.565 73.4501 141.61 73.4643 141.678 73.5279C141.745 73.5909 141.93 73.7963 141.93 74.1375H139.93C139.93 74.56 140.159 74.8458 140.311 74.9878C140.463 75.1305 140.633 75.2226 140.762 75.2819C141.024 75.4036 141.35 75.4955 141.687 75.5704C142.377 75.7239 143.336 75.8538 144.48 75.9601C146.779 76.1738 149.946 76.3029 153.47 76.3029V74.3029ZM176.249 65.3882C174.614 69.0762 172.783 71.2116 169.568 72.5018C166.239 73.8381 161.348 74.3029 153.47 74.3029V76.3029C161.33 76.3029 166.583 75.8551 170.313 74.3579C174.159 72.8145 176.306 70.1951 178.078 66.199L176.249 65.3882ZM174.156 49.7703C177.929 53.9283 178.752 59.7464 176.249 65.3882L178.078 66.199C180.868 59.907 179.994 53.2279 175.637 48.4264L174.156 49.7703ZM173.977 42.6615C173.485 43.4914 173.088 44.1826 172.817 44.7746C172.545 45.3672 172.356 45.9505 172.362 46.5566C172.369 47.1897 172.585 47.7291 172.908 48.2345C173.216 48.7153 173.653 49.2157 174.156 49.7703L175.637 48.4264C175.123 47.8598 174.797 47.4762 174.594 47.1574C174.406 46.8632 174.364 46.6873 174.362 46.5365C174.36 46.3586 174.414 46.0893 174.635 45.6078C174.856 45.1256 175.2 44.521 175.698 43.6806L173.977 42.6615ZM174.251 25.1083C175.358 27.2441 175.921 30.5992 175.865 34.0191C175.81 37.4445 175.137 40.702 173.977 42.6615L175.698 43.6806C177.114 41.2895 177.807 37.6285 177.865 34.0516C177.923 30.4691 177.349 26.738 176.026 24.1878L174.251 25.1083ZM154.16 17.9039C161.416 18.1384 165.708 18.5679 168.569 19.6257C171.301 20.6356 172.759 22.2317 174.251 25.1083L176.026 24.1878C174.388 21.0274 172.606 18.9855 169.263 17.7498C166.049 16.5618 161.433 16.1379 154.225 15.9049L154.16 17.9039ZM142.697 18.1012C142.326 17.8728 142.102 17.6995 141.984 17.5812C141.827 17.4249 142.005 17.5198 141.987 17.815C141.964 18.1926 141.68 18.295 141.799 18.2349C141.896 18.1856 142.125 18.1079 142.559 18.034C144.304 17.7367 147.988 17.7043 154.16 17.9039L154.225 15.9049C148.116 15.7074 144.209 15.7241 142.223 16.0624C141.724 16.1475 141.261 16.2654 140.895 16.4506C140.551 16.6249 140.033 17.0007 139.991 17.6928C139.953 18.3025 140.327 18.7529 140.569 18.9953C140.85 19.2758 141.227 19.5446 141.647 19.8037L142.697 18.1012ZM144.414 45.5796C144.414 37.6198 144.294 31.0634 144.078 26.4315C143.97 24.1187 143.838 22.268 143.681 20.9564C143.603 20.3045 143.517 19.7579 143.417 19.3445C143.367 19.1403 143.307 18.9361 143.229 18.7566C143.173 18.6271 143.025 18.3039 142.697 18.1013L141.647 19.8037C141.414 19.66 141.36 19.472 141.394 19.5521C141.407 19.5822 141.436 19.6622 141.473 19.8144C141.545 20.1138 141.621 20.5695 141.695 21.1934C141.843 22.4334 141.973 24.2278 142.08 26.5247C142.294 31.1124 142.414 37.6342 142.414 45.5796H144.414ZM142.697 73.058C143.025 72.8554 143.173 72.5322 143.229 72.4026C143.307 72.2231 143.367 72.019 143.417 71.8147C143.517 71.4014 143.603 70.8547 143.681 70.2028C143.838 68.8912 143.97 67.0406 144.078 64.7277C144.294 60.0958 144.414 53.5394 144.414 45.5796H142.414C142.414 53.525 142.294 60.0468 142.08 64.6345C141.973 66.9314 141.843 68.7259 141.695 69.9659C141.621 70.5897 141.545 71.0454 141.473 71.3449C141.436 71.4971 141.407 71.577 141.394 71.6071C141.36 71.6872 141.414 71.4993 141.647 71.3555L142.697 73.058ZM56.4579 27.1159C54.1663 28.2268 52.6751 30.4698 51.7123 33.1056C50.7449 35.7539 50.2573 38.9398 50.0666 42.1692C49.6852 48.6298 50.4808 55.4867 51.2247 59.0889L53.1834 58.6844C52.4695 55.2276 51.6935 48.5477 52.0631 42.287C52.248 39.1557 52.7167 36.1848 53.5908 33.7918C54.4696 31.3862 55.7051 29.7034 57.3303 28.9156L56.4579 27.1159ZM66.3585 35.1156C65.8891 33.1203 65.0123 30.4789 63.4987 28.6413C62.7307 27.7089 61.7531 26.9279 60.5293 26.5928C59.2887 26.253 57.9219 26.4062 56.4579 27.1159L57.3303 28.9156C58.4425 28.3765 59.3103 28.3326 60.001 28.5217C60.7086 28.7155 61.3592 29.1896 61.9549 29.9129C63.1687 31.3865 63.9611 33.6584 64.4116 35.5735L66.3585 35.1156ZM60.6672 67.0315C63.2639 65.982 64.9765 63.7934 66.0741 61.1504C67.1693 58.5132 67.693 55.3339 67.8724 52.111C68.2312 45.6628 67.223 38.7906 66.3585 35.1156L64.4116 35.5735C65.2438 39.1111 66.2212 45.7872 65.8755 51.9999C65.7026 55.1074 65.2015 58.0368 64.227 60.3834C63.2549 62.7244 61.8528 64.3951 59.9177 65.1773L60.6672 67.0315ZM51.2247 59.0889C51.6171 60.9893 52.5504 63.4298 54.0518 65.1843C54.8091 66.0693 55.7495 66.8242 56.8833 67.208C58.0382 67.5991 59.3158 67.5778 60.6672 67.0315L59.9177 65.1773C58.9831 65.555 58.1992 65.542 57.5247 65.3137C56.8291 65.0781 56.1721 64.5859 55.5714 63.884C54.3568 62.4647 53.5319 60.3724 53.1834 58.6844L51.2247 59.0889ZM94.1518 26.7282L95.3911 47.7939L97.3876 47.6764L96.1484 26.6107L94.1518 26.7282ZM96.5463 48.7227C104.772 47.4153 109.014 41.7955 108.768 36.2475C108.52 30.6555 103.749 25.6998 95.1536 25.6695L95.1466 27.6695C102.911 27.6969 106.579 32.0313 106.77 36.3362C106.963 40.6851 103.645 45.5693 96.2324 46.7475L96.5463 48.7227ZM153.632 26.6695V41.5393H155.632V26.6695H153.632ZM154.687 42.5378C162.087 42.1325 166.536 38.2273 166.65 33.8564C166.706 31.6829 165.648 29.6029 163.592 28.0981C161.55 26.6038 158.547 25.6833 154.636 25.6695L154.629 27.6695C158.251 27.6823 160.804 28.5358 162.411 29.7121C164.004 30.8779 164.688 32.365 164.65 33.8043C164.576 36.659 161.491 40.1621 154.578 40.5408L154.687 42.5378ZM195.766 26.6695V45.2568H197.766V26.6695H195.766ZM196.821 46.2553C204.862 45.8148 209.445 40.872 209.57 35.6943C209.632 33.1258 208.574 30.5961 206.394 28.7217C204.219 26.8522 200.992 25.6844 196.769 25.6695L196.762 27.6695C200.627 27.6831 203.357 28.7483 205.09 30.2383C206.817 31.7234 207.618 33.6797 207.57 35.6462C207.477 39.5382 203.972 43.8605 196.711 44.2583L196.821 46.2553ZM153.632 50.2135V65.0833H155.632V50.2135H153.632ZM154.644 66.0833C162.41 65.9916 167.005 62.1322 167.052 57.6445C167.1 53.1304 162.551 49.2851 154.642 49.2135L154.623 51.2134C162.096 51.2811 165.082 54.7817 165.052 57.6233C165.022 60.4911 161.925 63.9972 154.621 64.0834L154.644 66.0833Z" fill="black" mask="url(#path-3-inside-1_220_8704)"/>
<defs>
<linearGradient id="paint0_linear_220_8704" x1="137.467" y1="189.036" x2="277.981" y2="398.312" gradientUnits="userSpaceOnUse">
<stop stop-color="#E3AC79"/>
<stop offset="1" stop-color="#34211A"/>
</linearGradient>
</defs>
</svg>
