<svg width="108" height="107" viewBox="0 0 108 107" fill="none" xmlns="http://www.w3.org/2000/svg">
<path d="M103.59 40.053C104.004 36.4533 103.869 32.8116 103.189 29.2525C102.278 24.7637 99.7437 20.7683 96.0718 18.0301C92.4 15.2919 87.8478 14.0029 83.2855 14.4095C79.6835 14.765 76.1564 15.665 72.8244 17.0788C66.0664 19.9023 59.5706 25.534 54.2321 32.6624C48.8935 39.7907 45.2985 47.6134 44.4808 54.9114C44.3252 56.2581 44.2685 57.6144 44.311 58.9693C44.4053 62.2166 45.2307 65.4008 46.726 68.2849C48.2212 71.1689 50.3476 73.6786 52.9471 75.6271C55.5465 77.5756 58.552 78.9126 61.7397 79.5387C64.9274 80.1649 68.2153 80.0639 71.3586 79.2434C72.6891 78.8862 73.9934 78.4377 75.2622 77.9011C82.0357 75.0775 88.516 69.4304 93.8546 62.3021C99.1931 55.1737 102.773 47.3511 103.59 40.053Z" fill="#F8E4BE"/>
<path d="M99.687 24.4697C103.837 33.0484 102.665 43.1238 98.7921 51.5636C94.567 61.0236 87.6084 69.0033 78.8111 74.4761C74.9786 76.824 70.6045 78.1421 66.1128 78.3026C74.9075 77.778 82.6684 71.8377 88.3618 65.5425C95.1044 58.0902 100.782 48.5703 101.646 38.3407C102.131 33.6265 101.458 28.8653 99.687 24.4697Z" fill="#54372B"/>
<path d="M94.1787 24.3926L93.6078 24.8863C93.2375 25.2258 92.6975 25.7349 92.0649 26.4292C90.3857 28.3807 88.8393 30.4426 87.4361 32.601C86.5566 33.9279 85.4765 35.3165 84.5045 36.8286C83.5041 38.4326 82.6914 40.1462 82.0821 41.9357C81.4604 43.8624 81.0719 45.8568 80.9249 47.876C80.7399 50.0189 80.3418 52.138 79.7368 54.202C79.0747 56.2866 77.9931 58.2136 76.5584 59.8646C75.1439 61.4176 73.595 62.8427 71.9296 64.123C70.3867 65.3882 68.8438 66.4837 67.3008 67.5329C65.8987 68.5274 64.4464 69.4492 62.9497 70.2948C60.6941 71.581 58.2609 72.5273 55.7288 73.1029C54.8185 73.3035 54.0933 73.3961 53.5996 73.4732L52.8281 73.5503L53.5842 73.4269C54.0779 73.3343 54.8031 73.1955 55.698 72.9486C58.1569 72.2416 60.5083 71.2035 62.6875 69.8627C64.1493 68.9692 65.5606 67.9957 66.9151 66.9466C68.458 65.8666 70.0009 64.7094 71.5439 63.4596C73.1244 62.1917 74.5954 60.793 75.9412 59.2782C77.2775 57.701 78.28 55.8691 78.8882 53.8934C79.49 51.8796 79.8981 49.813 80.1072 47.7217C80.2726 45.6215 80.6923 43.5491 81.3569 41.55C82.0084 39.7102 82.8952 37.9624 83.9953 36.3503C85.0445 34.8074 86.1246 33.4959 87.0812 32.1844C88.5885 30.0849 90.2546 28.1042 92.0649 26.2595C92.7283 25.6115 93.2838 25.1332 93.6078 24.8092L94.1787 24.3926Z" fill="#54372B"/>
<path d="M93.793 22.2012C90.09 25.1173 88.0687 28.6506 84.9366 32.4925C81.7734 36.0744 79.6405 40.4468 78.7648 45.1446C78.506 48.0274 78.0211 50.8855 77.3145 53.6924C75.6327 58.7378 70.325 62.0551 66.1591 65.2644C61.9932 68.4737 57.7965 70.9732 52.5659 71.5904C56.0463 69.0663 59.2988 66.2422 62.2864 63.1505C65.2203 59.6468 67.3295 55.5286 68.4581 51.1003C69.6616 47.1349 69.461 42.7684 71.0965 38.8802C73.1486 34.0354 77.8083 30.7336 82.0822 27.6786C85.8624 25.0093 89.1642 22.7412 93.793 22.2012Z" fill="#54372B"/>
<path d="M27.4468 36.7665C23.8172 37.0475 20.2524 37.8853 16.8777 39.2506C12.6461 41.0056 9.21143 44.2612 7.23247 48.3928C5.2535 52.5244 4.86958 57.2412 6.15433 61.6385C7.19087 65.1012 8.75192 68.3846 10.7831 71.3744C14.8719 77.469 21.5836 82.7612 29.6686 86.6185C37.7536 90.4759 46.0699 92.4971 53.3834 91.8954C54.7328 91.7786 56.073 91.5724 57.3951 91.2782C60.5679 90.565 63.5388 89.1445 66.0861 87.1228C68.6334 85.1012 70.6913 82.5304 72.1064 79.6024C73.5215 76.6743 74.2572 73.4645 74.2586 70.2125C74.26 66.9604 73.5271 63.75 72.1146 60.8207C71.528 59.5834 70.8579 58.3874 70.1088 57.2411C66.0355 51.1466 59.3083 45.8697 51.2079 42.0124C43.1075 38.1551 34.7603 36.1493 27.4468 36.7665Z" fill="#F8E4BE"/>
<path d="M12.897 43.5864C20.411 37.9393 30.3784 37.0752 39.3274 39.1582C49.5525 41.4334 58.8483 46.7537 65.9892 54.4178C69.0162 57.7339 71.1412 61.7715 72.1609 66.1441C69.9391 57.6116 62.6256 51.1468 55.343 46.7803C46.718 41.596 36.2569 37.8776 26.0273 39.0656C21.3523 39.5022 16.8498 41.0523 12.897 43.5864Z" fill="#54372B"/>
<path d="M13.8843 49.0176L14.486 49.4805C14.8872 49.7736 15.4889 50.2056 16.2758 50.6839C18.5038 51.9642 20.8128 53.0981 23.1881 54.0784C24.7311 54.6956 26.274 55.4825 27.9095 56.1459C29.6752 56.8198 31.5134 57.2858 33.3869 57.5346C35.3955 57.7814 37.4267 57.7814 39.4352 57.5346C41.5748 57.326 43.7296 57.326 45.8692 57.5346C48.043 57.7793 50.1435 58.4672 52.041 59.5558C53.8261 60.6195 55.5144 61.838 57.0863 63.1971C58.6293 64.4932 60.0179 65.851 61.3448 67.1162C62.6068 68.2979 63.8067 69.5442 64.9398 70.85C66.6379 72.8145 68.0365 75.0189 69.0903 77.3921C69.4606 78.2561 69.7075 78.935 69.8618 79.4287L70.0778 80.1539L69.8155 79.4287C69.6304 78.9659 69.3526 78.287 68.936 77.4692C67.7686 75.1859 66.2943 73.0731 64.5541 71.1895C63.4895 70.0169 62.2397 68.8442 60.8819 67.6099C59.5242 66.3755 58.1047 65.0795 56.5772 63.8143C55.0224 62.4794 53.355 61.2818 51.5935 60.2347C49.7878 59.2324 47.7993 58.6028 45.7458 58.3832C43.6677 58.1826 41.5751 58.1826 39.4969 58.3832C37.4473 58.6331 35.3749 58.6331 33.3252 58.3832C31.3868 58.1261 29.4923 57.6071 27.6935 56.8402C25.9809 56.0996 24.4842 55.2973 23.0647 54.6338C20.7099 53.5679 18.4448 52.3141 16.2912 50.8845C15.5198 50.3599 14.9489 49.8971 14.5632 49.5885L13.8843 49.0176Z" fill="#54372B"/>
<path d="M11.8169 49.8203C15.3965 52.9062 19.2384 54.1868 23.6203 56.5166C27.7413 58.9243 32.4412 60.162 37.2135 60.0962C40.0937 59.7957 42.9927 59.7183 45.8848 59.8648C51.1616 60.5591 55.4355 65.1262 59.4009 68.5823C63.3662 72.0385 66.6218 75.6953 68.2264 80.6944C65.0746 77.7754 61.678 75.1324 58.074 72.7945C54.0675 70.5905 49.6172 69.3145 45.0516 69.0607C40.9166 68.6441 36.6735 69.6933 32.5539 68.8292C27.4005 67.7492 23.2963 63.8301 19.439 60.2197C16.1062 57.0567 13.2364 54.2485 11.8169 49.8203Z" fill="#54372B"/>
</svg>
