<svg width="108" height="107" viewBox="0 0 108 107" fill="none" xmlns="http://www.w3.org/2000/svg">
<path d="M54.1737 66.8082C59.5919 66.862 64.9716 65.8936 70.031 63.9539C74.9825 69.4681 83.6273 70.2252 83.6273 70.2252C93.0599 75.2279 92.4358 79.5349 93.4384 83.9545C93.5757 84.5891 93.8875 85.1727 94.3384 85.6398C94.7894 86.1068 95.3618 86.4388 95.9912 86.5982C96.6205 86.7577 97.2819 86.7384 97.9009 86.5424C98.5199 86.3465 99.0719 85.9817 99.4948 85.4891C100.913 83.7615 101.996 81.7836 102.687 79.6577C108.713 59.9947 98.3286 54.0814 98.3286 54.0814C98.6457 31.339 78.3893 30.275 78.3893 30.275V30.3466C71.6167 19.5023 54.1532 20.0036 54.1532 20.0036C54.1532 20.0036 36.6897 19.5023 29.9069 30.3466V30.275C29.9069 30.275 9.70164 31.2981 9.99832 54.0098C9.99832 54.0098 -0.385642 59.964 5.64013 79.5861C6.33735 81.7113 7.42313 83.6887 8.84227 85.4175C9.26388 85.9108 9.81511 86.2764 10.4336 86.4728C11.0521 86.6693 11.7133 86.6888 12.3423 86.5292C12.9713 86.3695 13.5431 86.0371 13.9931 85.5694C14.443 85.1018 14.7532 84.5176 14.8885 83.8829C15.9116 79.4633 15.2773 75.1563 24.7098 70.1536C24.7098 70.1536 33.3546 69.3965 38.3062 63.8823C43.3636 65.8491 48.7473 66.8419 54.1737 66.8082Z" fill="#F8E4BE"/>
<path d="M78.3076 48.2503C80.2007 45.0976 81.3744 41.5659 81.7451 37.9073C81.9214 35.4371 81.6156 32.9561 80.8448 30.6027C80.036 30.4223 79.2155 30.2992 78.3895 30.2344C79.7371 32.6156 80.4718 35.2945 80.5276 38.03C80.5344 41.5571 79.777 45.0439 78.3076 48.2503Z" fill="#54372B"/>
<path d="M26.6027 37.9068C26.9683 41.5665 28.1424 45.0993 30.0401 48.2498C28.5698 45.0397 27.8091 41.5501 27.8099 38.0193C27.872 35.2846 28.6064 32.6073 29.9481 30.2236C29.122 30.2885 28.3015 30.4116 27.4927 30.5919C26.7241 32.9493 26.4218 35.4338 26.6027 37.9068Z" fill="#54372B"/>
<path d="M97.7862 59.6677C98.6786 58.3147 99.3873 56.8491 99.8937 55.3095C99.4221 54.8193 98.8971 54.3835 98.3284 54.0102C98.3284 53.867 98.3284 53.7238 98.3284 53.5703C97.8853 57.7523 96.0517 61.6646 93.1211 64.6806C94.942 63.2785 96.5184 61.5846 97.7862 59.6677Z" fill="#54372B"/>
<path d="M15.2262 64.7109C12.2881 61.6977 10.4471 57.7851 9.9984 53.6006C9.9984 53.754 9.9984 53.8973 9.9984 54.0405C9.43368 54.4031 8.91199 54.8287 8.44336 55.3091C8.93017 56.8457 9.61818 58.3112 10.4895 59.6673C11.7799 61.5979 13.3803 63.302 15.2262 64.7109Z" fill="#54372B"/>
<path d="M100.027 60.332C102.186 63.9127 102.544 68.3016 102.073 72.3836C101.602 76.4655 100.221 80.6805 97.2852 83.6371C101.179 76.5158 102.162 68.1626 100.027 60.332Z" fill="#54372B"/>
<path d="M8.3102 60.332C6.15514 68.1714 7.12709 76.5412 11.0213 83.6781C8.0749 80.7112 6.71424 76.5167 6.23341 72.4245C5.75258 68.3323 6.1618 63.9025 8.3102 60.332Z" fill="#54372B"/>
<path d="M83.249 34.2236C85.3166 34.6965 87.2676 35.5817 88.985 36.8263C90.7024 38.0709 92.1511 39.6492 93.2442 41.4668C95.3755 45.2785 96.1611 49.6967 95.4745 54.0094C94.8402 49.9172 94.165 45.825 92.0166 42.2034C89.8698 38.7992 86.8397 36.0413 83.249 34.2236Z" fill="#54372B"/>
<path d="M25.0985 34.2236C21.507 36.0355 18.4763 38.7904 16.3309 42.1932C14.1723 45.825 13.4971 49.9172 12.8628 54.0094C12.1823 49.6944 12.9752 45.276 15.1135 41.4668C16.2041 39.6492 17.6507 38.0706 19.3666 36.8259C21.0824 35.5813 23.032 34.6961 25.0985 34.2236Z" fill="#54372B"/>
<path d="M32.3521 31.8198C33.7708 29.3248 35.8206 27.2468 38.296 25.794C41.3306 24.0763 44.651 22.9221 48.0968 22.3873C55.0024 21.2107 62.6753 21.9269 68.967 25.17C71.9044 26.6591 74.346 28.9693 75.9954 31.8198C74.166 29.6744 71.894 27.9503 69.3353 26.7659C66.408 25.4632 63.3061 24.5947 60.1279 24.1878C53.4349 23.2059 46.6027 23.9092 40.25 26.2339C37.1927 27.408 34.4776 29.3282 32.3521 31.8198Z" fill="#54372B"/>
<path d="M35.503 34.0706C35.237 34.1422 35.0324 34.5003 34.7971 35.3494L34.4492 36.618L35.0426 35.8405C35.7792 34.8481 36.0145 33.9376 35.503 34.0706Z" fill="#54372B"/>
<path d="M69.5707 31.9839C69.4071 32.3522 69.4378 32.5057 69.7344 32.8944C70.4199 33.7845 70.6552 32.7717 69.9902 31.8714C69.806 31.6054 69.714 31.6361 69.5707 31.9839Z" fill="#54372B"/>
<path d="M53.4474 32.2397C53.6726 32.1656 53.9064 32.1209 54.1431 32.1067C54.3988 32.1067 54.3477 32.0044 53.9078 31.5952C53.4679 31.186 53.2223 31.1041 53.12 31.8714C53.0689 32.3216 53.0996 32.3625 53.4474 32.2397Z" fill="#54372B"/>
<path d="M18.2443 44.5879C18.4695 44.5138 18.7033 44.4691 18.94 44.4549C19.1957 44.4549 19.1446 44.3526 18.6944 43.9434C18.2443 43.5342 18.0192 43.4421 17.9169 44.2196C17.8658 44.6698 17.8964 44.7107 18.2443 44.5879Z" fill="#54372B"/>
<path d="M15.9424 48.6183C15.9424 48.8229 16.0242 48.9968 16.1368 48.9968C16.2493 48.9968 16.4232 48.8229 16.5051 48.6183C16.5869 48.4137 16.5051 48.25 16.3107 48.25C16.2138 48.2526 16.1216 48.2922 16.0531 48.3607C15.9846 48.4293 15.945 48.5214 15.9424 48.6183Z" fill="#54372B"/>
<path d="M88.5791 50.8078C88.5791 51.0124 88.6609 51.1863 88.7735 51.1863C88.886 51.1863 89.0599 51.0124 89.1418 50.8078C89.2236 50.6031 89.1418 50.4395 88.9474 50.4395C88.8505 50.442 88.7584 50.4817 88.6898 50.5502C88.6213 50.6187 88.5817 50.7109 88.5791 50.8078Z" fill="#54372B"/>
<path d="M33.3649 41.0477C33.3035 40.618 33.2216 40.5873 32.8226 40.843L32.3521 41.15L32.7613 41.4671C33.2728 41.8661 33.4672 41.7331 33.3649 41.0477Z" fill="#54372B"/>
<path d="M19.9933 51.6877C19.9319 51.2682 19.8501 51.2375 19.4511 51.4831L18.9805 51.79L19.3897 52.1071C19.9012 52.5061 20.0956 52.3731 19.9933 51.6877Z" fill="#54372B"/>
<path d="M66.6651 29.4564C66.7033 29.544 66.7663 29.6186 66.8462 29.6709C66.9262 29.7233 67.0197 29.7512 67.1153 29.7512C67.2109 29.7512 67.3044 29.7233 67.3843 29.6709C67.4643 29.6186 67.5272 29.544 67.5654 29.4564C67.7291 29.2006 67.6984 29.1085 67.3608 28.8221C67.1916 28.6677 66.9883 28.5555 66.7674 28.4947C66.4912 28.4333 66.4401 29.0165 66.6651 29.4564Z" fill="#54372B"/>
<path d="M88.4564 47.3801C88.4946 47.4678 88.5575 47.5423 88.6375 47.5947C88.7174 47.6471 88.8109 47.675 88.9065 47.675C89.0021 47.675 89.0956 47.6471 89.1756 47.5947C89.2555 47.5423 89.3185 47.4678 89.3567 47.3801C89.5101 47.1346 89.4794 47.0425 89.1418 46.7561C88.9753 46.5979 88.771 46.4852 88.5484 46.4287C88.2824 46.4492 88.2211 46.9812 88.4564 47.3801Z" fill="#54372B"/>
<path d="M15.7988 52.6188C16.0342 52.9053 16.3104 52.6188 16.2285 52.1482C16.2066 52.0605 16.1569 51.9822 16.0868 51.9251C16.0167 51.8679 15.9301 51.835 15.8398 51.8311C15.5022 51.8311 15.4817 52.23 15.7988 52.6188Z" fill="#54372B"/>
<path d="M56.5269 26.0299C56.7827 26.2652 56.9668 26.3061 57.0282 26.1322C57.0896 25.9583 56.7315 25.6412 56.5167 25.7332C56.3019 25.8253 56.3428 25.8662 56.5269 26.0299Z" fill="#54372B"/>
<path d="M21.5998 44.4338C21.8555 44.6691 22.0397 44.6998 22.1011 44.5258C22.1625 44.3519 21.8044 44.0348 21.5793 44.1371C21.3542 44.2394 21.4156 44.2598 21.5998 44.4338Z" fill="#54372B"/>
<path d="M49.3243 34.3058C49.6721 34.6741 49.713 34.6639 49.9484 34.1012C50.1837 33.5385 50.0916 33.0781 49.6823 33.0781C49.2731 33.0781 48.9867 33.9273 49.3243 34.3058Z" fill="#54372B"/>
<path d="M67.801 37.2831C67.7397 37.3244 67.6903 37.3811 67.658 37.4476C67.6256 37.5141 67.6115 37.5879 67.6168 37.6616C67.6168 37.7844 67.801 37.856 68.067 37.856C68.333 37.856 68.5069 37.7333 68.2 37.3036C68.0567 37.099 68.026 37.099 67.801 37.2831Z" fill="#54372B"/>
<path d="M52.7211 26.7457C52.768 26.9788 52.8508 27.2031 52.9667 27.4107C53.2122 27.8506 53.5191 27.7074 53.6726 27.1038C53.826 26.5002 53.7953 26.4081 53.1917 26.3672C52.7723 26.3876 52.6904 26.3876 52.7211 26.7457Z" fill="#54372B"/>
<path d="M57.601 33.4775C57.2941 33.4775 57.3145 33.897 57.601 34.1016C57.8875 34.3062 57.9181 34.2448 57.9591 34.1016C58 33.9584 57.8261 33.4775 57.601 33.4775Z" fill="#54372B"/>
<path d="M23.7688 37.8867C23.4517 37.8867 23.4721 38.3062 23.7688 38.5108C24.0655 38.7154 24.086 38.654 24.1269 38.5108C24.1678 38.3676 23.9837 37.8867 23.7688 37.8867Z" fill="#54372B"/>
<path d="M14.8679 55.6263C14.3564 55.6263 14.0597 56.1787 14.4382 56.4242C14.8167 56.6698 15.1032 56.5163 15.2157 56.0252C15.2272 55.9749 15.2266 55.9226 15.2141 55.8726C15.2015 55.8225 15.1772 55.7761 15.1433 55.7372C15.1094 55.6983 15.0668 55.668 15.0189 55.6487C14.971 55.6294 14.9193 55.6217 14.8679 55.6263Z" fill="#54372B"/>
<path d="M91.2284 52.271C90.7168 52.271 90.4099 52.8235 90.7987 53.069C91.1874 53.3145 91.4637 53.1611 91.5762 52.6802C91.5896 52.6292 91.5905 52.5758 91.5789 52.5243C91.5672 52.4729 91.5432 52.4251 91.5091 52.3849C91.4749 52.3447 91.4315 52.3134 91.3827 52.2935C91.3338 52.2737 91.2809 52.266 91.2284 52.271Z" fill="#54372B"/>
<path d="M17.6915 54.9609C17.6003 54.965 17.5133 55.001 17.446 55.0627C17.3786 55.1245 17.3352 55.208 17.3232 55.2985C17.3232 55.4827 17.3846 55.6259 17.4972 55.6259C17.6097 55.6259 17.7734 55.4827 17.8655 55.2985C17.9575 55.1144 17.8757 54.9609 17.6915 54.9609Z" fill="#54372B"/>
<path d="M92.0573 56.1992C91.9672 56.2036 91.8816 56.24 91.8159 56.3019C91.7503 56.3638 91.7089 56.4471 91.6992 56.5368C91.6992 56.7107 91.7606 56.8642 91.8731 56.8642C91.9857 56.8642 92.1494 56.7107 92.2312 56.5368C92.3131 56.3629 92.2414 56.1992 92.0573 56.1992Z" fill="#54372B"/>
<path d="M60.854 27.4823C60.9359 27.8097 60.9768 27.8097 61.5395 27.4823C62.1021 27.155 62.0407 26.9094 61.4781 26.889C60.9154 26.8685 60.7619 27.0936 60.854 27.4823Z" fill="#54372B"/>
<path d="M38.5004 30.7148C38.4545 30.7671 38.3978 30.8088 38.3342 30.8371C38.2706 30.8653 38.2017 30.8795 38.1321 30.8785C37.774 30.8785 37.6513 30.9808 37.6206 31.3184C37.5899 31.656 37.6206 31.6151 37.948 31.6662L38.4288 31.7685C38.5004 31.7685 38.5822 31.6764 38.6129 31.5434C38.6436 31.4105 38.7152 31.2877 38.7766 31.2877C38.838 31.2877 38.8585 31.2263 38.838 31.1445C38.8327 31.0927 38.8401 31.0405 38.8598 30.9923C38.8794 30.9441 38.9106 30.9015 38.9505 30.8682C38.9863 30.8444 39.016 30.8126 39.0373 30.7753C39.0586 30.738 39.071 30.6963 39.0733 30.6534C39.0426 30.4795 38.6436 30.5613 38.5004 30.7148Z" fill="#54372B"/>
<path d="M60.7416 30.8685C60.404 30.7866 60.3119 30.9606 60.4961 31.3391C60.5219 31.4055 60.5631 31.4648 60.6162 31.5121C60.6694 31.5595 60.7331 31.5935 60.802 31.6115C60.8709 31.6295 60.9431 31.6309 61.0126 31.6155C61.0821 31.6002 61.147 31.5685 61.202 31.5232C61.3964 31.38 61.1508 30.9606 60.7416 30.8685Z" fill="#54372B"/>
<path d="M45.8868 29.5695C45.7423 29.5735 45.601 29.5264 45.4878 29.4365C45.4515 29.4074 45.4064 29.3916 45.3599 29.3916C45.3134 29.3916 45.2683 29.4074 45.232 29.4365C45.1093 29.5286 45.232 29.9173 45.4878 30.5414C45.5492 30.6641 45.7436 30.7255 45.9789 30.6948C46.2142 30.6641 46.3574 30.5823 46.2653 30.1117C46.1733 29.6411 46.1119 29.5695 45.8868 29.5695Z" fill="#54372B"/>
<path d="M92.6915 49.7028C92.5482 49.7098 92.4071 49.6663 92.2925 49.58C92.2562 49.551 92.2111 49.5352 92.1646 49.5352C92.1181 49.5352 92.073 49.551 92.0367 49.58C91.914 49.6721 92.0367 50.0609 92.2925 50.6849C92.3539 50.8077 92.5483 50.8691 92.7836 50.8384C93.0189 50.8077 93.1621 50.7259 93.07 50.2553C92.9779 49.7847 92.9166 49.7028 92.6915 49.7028Z" fill="#54372B"/>
<path d="M48.813 27.666C48.3219 27.666 48.3117 27.7376 48.7209 28.3617C49.1301 28.9858 49.7439 29.0164 49.6212 28.6175C49.5189 28.0445 49.1915 27.666 48.813 27.666Z" fill="#54372B"/>
<path d="M46.3473 34.4391C46.3572 34.4891 46.3864 34.5332 46.4285 34.5619C46.4706 34.5906 46.5222 34.6016 46.5724 34.5926L47.1248 34.4596L47.5238 34.3778L47.2578 34.122C46.7565 33.6412 46.1632 33.8458 46.3473 34.4391Z" fill="#54372B"/>
<path d="M24.2086 41.8972C24.2186 41.9471 24.2477 41.9912 24.2898 42.0199C24.3319 42.0486 24.3836 42.0596 24.4337 42.0506L24.9964 41.9176L25.3851 41.8358L25.1192 41.58C24.6179 41.0992 24.0245 41.3038 24.2086 41.8972Z" fill="#54372B"/>
<path d="M84.1901 40.4235C84.2 40.4735 84.2291 40.5176 84.2712 40.5463C84.3133 40.575 84.365 40.586 84.4152 40.577C84.497 40.577 84.7528 40.4951 84.9676 40.444L85.3666 40.3621L85.1006 40.1064C84.5993 39.6255 84.0059 39.8301 84.1901 40.4235Z" fill="#54372B"/>
<path d="M60.885 36.3619C61.2124 36.6791 61.3249 36.6586 61.6114 36.2494C61.8979 35.8402 61.7751 35.5537 61.3045 35.5537C60.8339 35.5537 60.5884 36.0755 60.885 36.3619Z" fill="#54372B"/>
<path d="M41.5593 32.1367C41.0478 32.1367 41.0273 32.8631 41.5593 33.6508C42.0913 34.4386 42.388 34.5511 42.4698 33.9373C42.5517 33.3235 41.9481 32.1367 41.5593 32.1367Z" fill="#54372B"/>
<path d="M83.9036 43.5439C83.392 43.5439 83.3716 44.2703 83.9036 45.0581C84.4355 45.8458 84.7322 45.9583 84.8141 45.3445C84.8959 44.7307 84.2923 43.5439 83.9036 43.5439Z" fill="#54372B"/>
<path d="M41.3547 36.8022C41.1975 36.8266 41.0366 36.8015 40.8943 36.7305C40.7306 36.5464 40.5158 36.8328 40.5771 37.1705C40.5947 37.3109 40.6475 37.4446 40.7306 37.5592C40.8738 37.6717 41.0068 37.6308 41.2012 37.4262C41.3134 37.3191 41.4505 37.2418 41.6002 37.2011C41.6259 37.1974 41.6505 37.1886 41.6727 37.1752C41.6949 37.1618 41.7142 37.1441 41.7295 37.1231C41.7447 37.1021 41.7556 37.0783 41.7615 37.0531C41.7674 37.0278 41.7682 37.0016 41.7639 36.9761C41.7127 36.8226 41.6513 36.7919 41.3547 36.8022Z" fill="#54372B"/>
<path d="M25.3441 45.5901C25.1869 45.6159 25.0256 45.5908 24.8837 45.5185C24.7098 45.3343 24.5052 45.631 24.5563 45.9584C24.5739 46.0989 24.6267 46.2326 24.7098 46.3472C24.8633 46.4597 24.986 46.4188 25.1906 46.2244C25.2958 46.1113 25.4304 46.0298 25.5794 45.9891C25.6064 45.9887 25.6329 45.982 25.6569 45.9696C25.6809 45.9572 25.7016 45.9393 25.7175 45.9175C25.7334 45.8956 25.744 45.8704 25.7484 45.8438C25.7528 45.8171 25.751 45.7898 25.7431 45.764C25.6612 45.6106 25.5896 45.5799 25.3441 45.5901Z" fill="#54372B"/>
<path d="M21.047 40.3414C20.8888 40.3649 20.7272 40.3361 20.5867 40.2596C20.423 40.0857 20.2081 40.3721 20.2695 40.6995C20.2802 40.8399 20.3298 40.9745 20.4127 41.0883C20.5662 41.2008 20.6992 41.1701 20.8936 40.9655C20.9899 40.8519 21.113 40.764 21.2517 40.7097C21.2787 40.706 21.3046 40.6969 21.3281 40.683C21.3515 40.669 21.3719 40.6506 21.3881 40.6287C21.4043 40.6067 21.416 40.5818 21.4224 40.5553C21.4289 40.5288 21.4299 40.5013 21.4256 40.4744C21.4153 40.3517 21.3437 40.321 21.047 40.3414Z" fill="#54372B"/>
<path d="M74.6144 35.3287C74.6144 35.6766 74.6962 35.8198 74.819 35.8709C75.0236 35.963 75.0645 35.963 75.2179 35.8709C75.3714 35.7789 75.0849 34.8479 74.8599 34.7456C74.6348 34.6433 74.5632 34.766 74.6144 35.3287Z" fill="#54372B"/>
<path d="M67.5348 34.5719C67.549 34.5123 67.5414 34.4495 67.5132 34.3951C67.485 34.3406 67.4382 34.2981 67.3813 34.2752C67.1358 34.1525 66.5527 34.6435 66.655 34.8891C66.7573 35.1346 67.4223 34.7765 67.5348 34.5719Z" fill="#54372B"/>
<path d="M78.6551 41.8361C78.7779 41.7031 78.7779 41.6213 78.6551 41.4678C78.5708 41.3733 78.4605 41.3057 78.3379 41.2734C78.1436 41.2734 77.8264 41.7645 77.8776 41.9793C77.9287 42.1942 78.3993 42.1021 78.6551 41.8361Z" fill="#54372B"/>
<path d="M53.2223 35.5947C53.0996 35.5947 52.9461 35.8505 52.8745 36.1779C52.8029 36.5052 52.8745 36.7099 53.0075 36.6178C53.3451 36.3825 53.519 35.5947 53.2223 35.5947Z" fill="#54372B"/>
<path d="M86.2773 47.9434C86.1545 47.9434 85.9908 48.2094 85.9192 48.5265C85.8476 48.8436 85.9192 49.0585 86.0624 48.9664C86.4 48.7823 86.5637 47.9434 86.2773 47.9434Z" fill="#54372B"/>
<path d="M23.3903 48.4746C23.2675 48.4746 23.1141 48.7304 23.0425 49.0475C22.9708 49.3647 23.0425 49.5795 23.1755 49.4874C23.5131 49.3033 23.687 48.4746 23.3903 48.4746Z" fill="#54372B"/>
<path d="M37.8664 38.6642C37.9994 38.6642 38.1017 38.48 38.0915 38.255C38.0813 38.0299 37.9687 37.8662 37.8357 37.8662C37.7027 37.8662 37.6107 38.0401 37.6209 38.255C37.6311 38.4698 37.7334 38.6642 37.8664 38.6642Z" fill="#54372B"/>
<path d="M20.0344 47.8712C20.1674 47.8712 20.2595 47.6973 20.2595 47.4722C20.2595 47.2472 20.1367 47.0732 20.0037 47.0732C19.8707 47.0732 19.7786 47.2574 19.7889 47.4722C19.7991 47.6871 19.9014 47.8712 20.0344 47.8712Z" fill="#54372B"/>
<path d="M56.9463 29.0878C57.2737 29.4766 57.6011 29.4664 57.6931 29.0878C57.7852 28.7093 57.2328 28.1978 56.9054 28.3615C56.578 28.5252 56.6496 28.7195 56.9463 29.0878Z" fill="#54372B"/>
<path d="M87.5557 42.3476C87.8831 42.7466 88.2104 42.7261 88.3025 42.3476C88.3946 41.9691 87.8421 41.4575 87.5148 41.6212C87.1874 41.7849 87.259 41.9793 87.5557 42.3476Z" fill="#54372B"/>
<path d="M75.5246 38.8179C75.7702 38.6849 75.6781 38.5212 75.2791 38.4087C75.2452 38.3922 75.2081 38.3831 75.1704 38.3819C75.1327 38.3808 75.0951 38.3878 75.0603 38.4023C75.0255 38.4168 74.9941 38.4386 74.9683 38.4661C74.9426 38.4937 74.9229 38.5264 74.9108 38.5622C74.8392 38.6952 74.8494 38.8282 74.9108 38.8588C75.0077 38.9066 75.1154 38.928 75.2232 38.9208C75.331 38.9136 75.435 38.8781 75.5246 38.8179Z" fill="#54372B"/>
<path d="M92.2515 46.1022C92.497 45.9692 92.3947 45.8055 92.006 45.693C91.8116 45.6419 91.7195 45.693 91.6274 45.8465C91.5354 45.9999 91.5661 46.1125 91.6274 46.1431C91.7261 46.1908 91.8355 46.2121 91.9449 46.205C92.0542 46.1978 92.1599 46.1624 92.2515 46.1022Z" fill="#54372B"/>
<path d="M71.0436 37.1498C71.0436 36.894 70.8901 36.8838 70.573 37.1498C70.2558 37.4158 70.4195 37.9171 70.9004 37.9171C70.9924 37.9171 71.0845 37.9171 71.0947 37.9989C71.0947 38.1217 71.4119 38.1217 71.4733 37.9989C71.5346 37.8761 71.4221 37.7943 71.2993 37.6511C71.1755 37.5067 71.0878 37.3348 71.0436 37.1498Z" fill="#54372B"/>
<path d="M77.673 37.2215C77.8163 37.4875 78.0413 37.467 78.1641 37.1601C78.2869 36.8532 77.9186 36.4951 77.6321 36.4951C77.3457 36.4951 77.5196 36.935 77.673 37.2215Z" fill="#54372B"/>
<path d="M31.2472 36.8841C31.3933 36.7348 31.4836 36.5397 31.503 36.3317C31.503 36.0964 31.503 36.0862 31.2574 36.3317C31.1144 36.4843 31.0216 36.6771 30.9915 36.8841C30.9812 37.0785 31.0324 37.0888 31.2472 36.8841Z" fill="#54372B"/>
<path d="M42.7358 26.3877C43.6873 31.237 44.5466 36.0965 45.3855 40.9662C46.3472 46.5725 47.1554 52.2914 54.2349 52.2914C61.3145 52.2914 62.1431 46.6134 63.0741 41.0378C63.8823 36.1578 64.7212 31.2983 65.642 26.4388C65.1509 31.3597 64.6189 36.2601 63.9744 41.1708C63.2071 47.3091 61.9283 53.5906 54.2349 53.5804C46.5416 53.5702 45.2832 47.3296 44.4853 41.1503C43.8407 36.1783 43.2371 31.2779 42.7358 26.3877Z" fill="#54372B"/>
</svg>
