<svg width="108" height="107" viewBox="0 0 108 107" fill="none" xmlns="http://www.w3.org/2000/svg">
<path d="M103.933 66.0605H3.95999C3.76165 66.0667 3.56913 66.1291 3.40493 66.2405C3.24074 66.3519 3.11161 66.5077 3.03265 66.6898C2.95369 66.8718 2.92816 67.0726 2.95901 67.2686C2.98986 67.4646 3.07584 67.6478 3.2069 67.7968C6.07283 70.8196 12.9238 76.7189 22.9441 76.8757C23.2112 76.8823 23.4657 76.9908 23.6554 77.1791L26.4062 79.9299C26.6011 80.1232 26.864 80.2321 27.1384 80.2333H80.7542C81.0286 80.2321 81.2915 80.1232 81.4864 79.9299L84.2372 77.1791C84.4269 76.9908 84.6814 76.8823 84.9485 76.8757C94.9688 76.7189 101.82 70.8196 104.686 67.7968C104.817 67.6478 104.903 67.4646 104.934 67.2686C104.964 67.0726 104.939 66.8718 104.86 66.6898C104.781 66.5077 104.652 66.3519 104.488 66.2405C104.323 66.1291 104.131 66.0667 103.933 66.0605Z" fill="#F8E4BE"/>
<path d="M103.818 39.4719C103.2 34.9429 99.6337 31.8678 95.3558 30.8009C92.2293 30.1135 89.0036 30.0036 85.8376 30.4767C85.8376 29.0019 85.9108 27.82 85.9108 27.046C85.9108 26.7686 85.8006 26.5025 85.6044 26.3064C85.4083 26.1102 85.1422 26 84.8648 26H23.0069C22.7295 26 22.4634 26.1102 22.2673 26.3064C22.0711 26.5025 21.9609 26.7686 21.9609 27.046C21.9609 33.2171 22.8186 65.1293 38.8009 66.0602H69.1232C72.0566 65.8735 74.8074 64.5711 76.811 62.4203C80.7132 62.208 84.5542 61.3564 88.1805 59.8995C92.5256 58.1194 96.3889 55.3384 99.4559 51.7829C102.259 48.4462 104.435 43.9486 103.818 39.4719ZM96.9456 47.0551C94.7186 50.6405 91.5635 53.5571 87.8144 55.496C85.2674 56.8596 82.5373 57.8495 79.7083 58.4352C82.4591 53.6133 84.0072 47.2434 84.8544 41.407C86.5671 40.8531 88.1015 39.8531 89.2997 38.5097C90.0996 37.5707 91.1829 36.9172 92.3865 36.6474C93.5901 36.3776 94.8488 36.5063 95.9729 37.0139C100.031 39.0431 98.7656 43.9068 96.9456 47.0551Z" fill="#F8E4BE"/>
<path d="M80.0742 59.418C85.7093 58.1537 90.8573 55.2836 94.8955 51.155C97.1594 48.8737 98.7142 45.9855 99.3722 42.8396C99.8847 39.7017 98.4726 36.773 95.3243 35.8735C93.6484 35.4296 91.8653 35.6586 90.356 36.5116C89.2328 37.2391 88.182 38.0727 87.2181 39.0009C88.9962 37.2437 90.4919 35.5388 93.1696 35.3087C94.7196 35.1588 96.2684 35.6055 97.5005 36.5577C98.7326 37.51 99.5553 38.8962 99.801 40.4339C100.293 43.7287 98.5772 47.128 96.6631 49.6802C94.5692 52.3598 91.954 54.5871 88.9753 56.2279C86.2135 57.7945 83.2024 58.8737 80.0742 59.418Z" fill="#54372B"/>
<path d="M24.9941 76.5403L34.0417 76.4671L53.9149 76.4043L73.7881 76.4671L82.8356 76.5403L73.7881 76.6135H53.9149H34.0417L24.9941 76.5403Z" fill="#54372B"/>
<path d="M5.05811 68.1203L53.9462 67.9844L102.834 68.1203L53.9462 68.2459L5.05811 68.1203Z" fill="#54372B"/>
<path d="M34.7531 61.3328C30.768 57.2536 29.1363 51.2393 27.8497 45.8422C26.7044 40.9082 26.0043 35.8814 25.7578 30.8222L28.8957 30.6758C29.2618 41.0726 30.1718 51.7832 34.7531 61.3328Z" fill="#54372B"/>
</svg>
