<svg width="108" height="107" viewBox="0 0 108 107" fill="none" xmlns="http://www.w3.org/2000/svg">
<path d="M91.0292 28.1291V15.2553C91.0312 11.7397 90.3359 8.25866 88.9834 5.01363C88.472 3.81278 87.6159 2.79056 86.5235 2.0762C85.4311 1.36185 84.1514 0.987442 82.8462 1.00034H25.6829C24.3785 0.987009 23.0995 1.36132 22.008 2.07581C20.9166 2.79029 20.0619 3.81278 19.5523 5.01363C18.1947 8.25734 17.4971 11.739 17.5 15.2553V28.1291C17.5 28.6475 17.7059 29.1446 18.0725 29.5112C18.439 29.8777 18.9362 30.0837 19.4545 30.0837H20.7119C20.1907 51.9418 23.3766 77.7089 23.748 80.6276L18.9008 86.3218C18.0151 87.3643 17.528 88.6871 17.5261 90.055V95.9902C17.5226 96.9748 17.7716 97.9438 18.2492 98.8047L19.6304 101.28C20.0199 101.976 20.5869 102.556 21.2736 102.961C21.9603 103.367 22.7422 103.582 23.5395 103.587H27.4029V104.499C27.4029 104.931 27.5745 105.345 27.88 105.651C28.1854 105.956 28.5997 106.128 29.0317 106.128H35.1884C35.6204 106.128 36.0347 105.956 36.3402 105.651C36.6456 105.345 36.8172 104.931 36.8172 104.499V103.619H71.7315V104.551C71.7332 104.977 71.9033 105.386 72.2047 105.687C72.5062 105.988 72.9145 106.159 73.3407 106.16H79.5236C79.9498 106.159 80.3581 105.988 80.6596 105.687C80.961 105.386 81.1311 104.977 81.1328 104.551V103.619H84.9897C85.787 103.615 86.5689 103.399 87.2556 102.994C87.9423 102.589 88.5093 102.009 88.8988 101.313L90.2799 98.8373C90.7572 97.9759 91.0082 97.0075 91.0096 96.0228V90.0875C91.0072 88.7209 90.5227 87.3989 89.6415 86.3544L84.7877 80.6342C85.1591 77.7154 88.345 51.9678 87.8238 30.0902H89.0812C89.3378 30.0893 89.5918 30.0379 89.8286 29.9389C90.0655 29.8399 90.2804 29.6952 90.4613 29.5131C90.6422 29.331 90.7855 29.1151 90.8829 28.8776C90.9803 28.6401 91.03 28.3858 91.0292 28.1291ZM21.9694 30.0837H29.1359C30.0899 30.1267 30.9936 30.524 31.6703 31.1977L35.3774 34.9048C35.8538 35.3836 36.4203 35.7631 37.0444 36.0214C37.6684 36.2797 38.3374 36.4117 39.0128 36.4098H69.5034C70.1777 36.4112 70.8456 36.279 71.4685 36.0207C72.0914 35.7623 72.6569 35.3831 73.1323 34.9048L76.8459 31.1977C77.5202 30.5244 78.4217 30.1271 79.3737 30.0837H86.5403C80.6116 60.5091 62.7081 76.7512 33.9571 80.152H24.9793C24.4711 76.0932 21.5068 51.2251 21.9889 30.0706L21.9694 30.0837Z" fill="#F8E4BE"/>
<path d="M73.6275 58.3594C79.6278 50.4566 83.0287 41.1596 85.0484 31.5303C83.7393 36.4972 82.0401 41.353 79.9666 46.0524C75.6471 55.6035 68.891 63.9493 60.024 69.6174C51.7498 74.9142 42.2899 77.5267 32.6606 79.1034C37.8052 78.6421 42.8881 77.6487 47.8277 76.139C58.0564 72.888 67.1124 66.9462 73.6275 58.3594Z" fill="#F8E4BE"/>
<path d="M21.4873 31.1777L29.2077 31.5035L21.4873 31.8292V31.1777Z" fill="#F8E4BE"/>
<path d="M21.6045 33.6729L29.3314 33.9986L21.6045 34.3244V33.6729Z" fill="#F8E4BE"/>
<path d="M21.7285 36.1689L29.4489 36.4947L21.7285 36.8205V36.1689Z" fill="#F8E4BE"/>
<path d="M21.8521 38.6641L29.5724 38.9898L21.8521 39.3156V38.6641Z" fill="#F8E4BE"/>
<path d="M21.9692 41.1592L29.6896 41.4849L21.9692 41.8107V41.1592Z" fill="#F8E4BE"/>
<path d="M22.0933 43.6543L29.8136 43.9801L22.0933 44.3058V43.6543Z" fill="#F8E4BE"/>
<path d="M22.2104 46.1494L29.9373 46.4752L22.2104 46.8009V46.1494Z" fill="#F8E4BE"/>
<path d="M22.334 48.6445L30.0544 48.9703L22.334 49.296V48.6445Z" fill="#F8E4BE"/>
<path d="M22.4517 51.1406L30.1785 51.4664L22.4517 51.7921V51.1406Z" fill="#F8E4BE"/>
<path d="M22.5752 53.6357L30.2956 53.9615L22.5752 54.2872V53.6357Z" fill="#F8E4BE"/>
<path d="M22.6924 56.1309L30.4193 56.4566L22.6924 56.7824V56.1309Z" fill="#F8E4BE"/>
<path d="M22.8164 58.626L30.5368 58.9517L22.8164 59.2775V58.626Z" fill="#F8E4BE"/>
<path d="M22.9399 61.1211L30.6603 61.4468L22.9399 61.7726V61.1211Z" fill="#F8E4BE"/>
<path d="M23.0576 63.6172L30.7845 63.9429L23.0576 64.2687V63.6172Z" fill="#F8E4BE"/>
<path d="M23.1812 66.1123L30.9015 66.4381L23.1812 66.7638V66.1123Z" fill="#F8E4BE"/>
<path d="M23.2983 68.6074L31.0252 68.9332L23.2983 69.2589V68.6074Z" fill="#F8E4BE"/>
<path d="M23.4224 71.1025L31.1427 71.4283L23.4224 71.754V71.1025Z" fill="#F8E4BE"/>
<path d="M23.5396 73.5977L31.2664 73.9234L23.5396 74.2492V73.5977Z" fill="#F8E4BE"/>
<path d="M23.6631 76.0928L31.3835 76.4185L23.6631 76.7443V76.0928Z" fill="#F8E4BE"/>
<path d="M23.7803 78.5879L31.5072 78.9136L23.7803 79.2394V78.5879Z" fill="#F8E4BE"/>
<path d="M42.4398 36.3972V38.8729C42.4415 39.3026 42.613 39.7142 42.9168 40.0181C43.2207 40.322 43.6323 40.4934 44.062 40.4951H44.1141L21.2397 41.9871C19.5718 42.2216 18.4252 44.7821 18.8356 47.6813C19.2461 50.5805 20.9205 52.75 22.5883 52.5089L48.7333 47.4728C49.5301 47.817 50.3815 48.0177 51.2482 48.0657V49.4469C51.2482 49.706 51.3511 49.9546 51.5344 50.1379C51.7177 50.3212 51.9662 50.4241 52.2254 50.4241H52.5381V51.2124C52.5381 51.247 52.5519 51.2801 52.5763 51.3046C52.6007 51.329 52.6339 51.3428 52.6684 51.3428H55.8608C55.8954 51.3428 55.9285 51.329 55.953 51.3046C55.9774 51.2801 55.9911 51.247 55.9911 51.2124V50.4241H56.3104C56.5696 50.4241 56.8181 50.3212 57.0014 50.1379C57.1847 49.9546 57.2876 49.706 57.2876 49.4469V48.0657C59.2253 47.9511 61.0461 47.101 62.378 45.6892C63.71 44.2773 64.4526 42.4101 64.4542 40.4691H64.4998C64.9301 40.4691 65.3427 40.2982 65.6469 39.9939C65.9512 39.6897 66.1221 39.2771 66.1221 38.8468V36.3711L42.4398 36.3972Z" fill="#F8E4BE"/>
<path d="M88.6121 87.8196L83.4 81.5391H25.1031L19.8911 87.8196C19.8593 87.8568 19.8365 87.9007 19.8244 87.9481C19.8123 87.9955 19.8112 88.045 19.8213 88.0928C19.8314 88.1407 19.8523 88.1856 19.8825 88.2241C19.9126 88.2625 19.9512 88.2936 19.9953 88.3148C21.4156 89.0249 28.1001 91.3834 54.2451 91.3834C80.3901 91.3834 87.0811 89.0249 88.5013 88.3148C88.5459 88.2942 88.5851 88.2636 88.616 88.2254C88.6468 88.1873 88.6684 88.1425 88.6791 88.0946C88.6899 88.0467 88.6894 87.9969 88.6778 87.9492C88.6661 87.9016 88.6437 87.8572 88.6121 87.8196Z" fill="#54372B"/>
<path d="M81.7451 82.1191C81.7451 82.1191 82.11 82.4384 82.6051 82.9726C83.1003 83.5069 83.7322 84.2756 84.3251 85.0249C84.918 85.7741 85.4783 86.6145 85.8692 87.2465C86.2601 87.8785 86.5207 88.341 86.5207 88.341C86.5207 88.341 86.1493 88.0218 85.6476 87.4941C85.038 86.8418 84.4617 86.159 83.9212 85.4483C83.3283 84.6665 82.7745 83.8521 82.3836 83.2137C81.9927 82.5752 81.7451 82.1191 81.7451 82.1191Z" fill="#F8E4BE"/>
<path d="M26.784 82.1191C26.784 82.1191 26.4191 82.4384 25.924 82.9726C25.4289 83.5069 24.8034 84.2756 24.204 85.0249C23.6046 85.7741 23.0509 86.6145 22.6599 87.2465C22.4349 87.6004 22.2283 87.9657 22.041 88.341C22.041 88.341 22.4124 88.0218 22.9075 87.4941C23.5195 86.842 24.0979 86.1592 24.6405 85.4483C25.1882 84.7297 25.6992 83.9839 26.1716 83.2137C26.5625 82.5947 26.784 82.1191 26.784 82.1191Z" fill="#F8E4BE"/>
<path d="M83.0417 88.0934C82.6508 87.3767 82.0971 86.4581 81.4977 85.572C80.8983 84.686 80.2533 83.8455 79.7451 83.2396C79.2369 82.6337 78.8525 82.2559 78.8525 82.2559C78.8525 82.2559 79.0675 82.7771 79.4519 83.4937C79.8363 84.2104 80.3901 85.1355 80.983 86.0216C81.532 86.8282 82.1213 87.6066 82.7486 88.354C83.0302 88.6938 83.3303 89.0179 83.6476 89.3247C83.6476 89.3247 83.4326 88.81 83.0417 88.0934Z" fill="#F8E4BE"/>
<path d="M78.3378 85.7224C77.8036 84.8364 77.2302 83.9829 76.7742 83.364C76.3181 82.7451 75.9663 82.3672 75.9663 82.3672C76.1119 82.7861 76.2793 83.1971 76.468 83.5985C76.858 84.4654 77.2929 85.3113 77.771 86.1329C78.2494 86.9481 78.7736 87.7355 79.3411 88.4914C79.5958 88.8367 79.8698 89.1674 80.162 89.4816C80.0119 89.0647 79.8401 88.6558 79.6473 88.2568C79.3476 87.5336 78.8395 86.615 78.3378 85.7224Z" fill="#F8E4BE"/>
<path d="M75.1716 85.9244C74.7556 85.0701 74.2968 84.2373 73.7969 83.4291C73.5749 83.0625 73.3335 82.708 73.0737 82.3672C73.1862 82.8081 73.321 83.243 73.4777 83.6702C73.7513 84.4194 74.1292 85.3902 74.6178 86.3283C75.0319 87.1849 75.493 88.018 75.999 88.8236C76.2257 89.1881 76.4715 89.5404 76.7352 89.8791C76.7352 89.8791 76.5984 89.3448 76.3182 88.5761C75.9827 87.6727 75.6 86.7876 75.1716 85.9244Z" fill="#F8E4BE"/>
<path d="M72.0116 86.0289C71.6207 85.0842 71.1842 84.1721 70.8258 83.5076C70.6275 83.1382 70.41 82.7794 70.1743 82.4326C70.2555 82.8722 70.3599 83.3071 70.487 83.7356C70.7537 84.6373 71.0669 85.5245 71.4252 86.3938C71.7773 87.2528 72.1753 88.0923 72.6175 88.9086C72.8146 89.2808 73.0321 89.6418 73.269 89.9901C73.1824 89.5613 73.0737 89.1372 72.9432 88.7197C72.6794 87.8072 72.3685 86.9091 72.0116 86.0289Z" fill="#F8E4BE"/>
<path d="M68.8452 86.1647C68.5572 85.3032 68.2244 84.4573 67.8484 83.6303C67.681 83.2538 67.494 82.8863 67.2881 82.5293C67.3385 82.9522 67.4125 83.372 67.5096 83.7867C67.9087 85.5792 68.4917 87.3258 69.2491 88.9988C69.4203 89.3758 69.6117 89.7434 69.8225 90.0998C69.7678 89.6749 69.6917 89.2531 69.5944 88.8359C69.3915 87.933 69.1415 87.0414 68.8452 86.1647Z" fill="#F8E4BE"/>
<path d="M65.6855 86.2624C65.458 85.3956 65.1861 84.541 64.8711 83.702C64.7328 83.3223 64.5741 82.9504 64.3955 82.5879C64.4181 83.0046 64.4616 83.4199 64.5258 83.8323C64.6604 84.727 64.8409 85.6142 65.0666 86.4904C65.2901 87.3563 65.5619 88.2089 65.8809 89.0443C66.0205 89.4276 66.1837 89.8019 66.3696 90.1649C66.3696 90.1649 66.3696 89.6567 66.2328 88.914C66.095 88.0215 65.9123 87.1365 65.6855 86.2624Z" fill="#F8E4BE"/>
<path d="M62.5515 86.3477C62.3691 85.3965 62.1411 84.4584 61.9 83.7417C61.7856 83.3548 61.6507 82.9742 61.4961 82.6016C61.4961 82.6016 61.4961 83.1032 61.5352 83.8394C61.6058 84.7267 61.7233 85.6097 61.887 86.4846C62.0546 87.3649 62.2722 88.235 62.5385 89.0906C62.653 89.4775 62.7878 89.8581 62.9424 90.2307C62.9515 89.8177 62.9385 89.4045 62.9034 88.9929C62.8187 88.2566 62.6884 87.3315 62.5515 86.3477Z" fill="#F8E4BE"/>
<path d="M58.9227 83.8198C58.8381 83.4276 58.7315 83.0404 58.6035 82.6602C58.5672 83.0652 58.552 83.4719 58.5579 83.8785C58.5651 85.6315 58.7595 87.3788 59.1377 89.0906C59.2186 89.483 59.323 89.8703 59.4505 90.2502C59.4911 89.8455 59.5085 89.4387 59.5026 89.0319C59.4961 88.1503 59.4439 87.2695 59.3462 86.3933C59.2355 85.4616 59.0791 84.517 58.9227 83.8198Z" fill="#F8E4BE"/>
<path d="M55.9389 83.8521C55.8829 83.4554 55.8068 83.0618 55.7108 82.6729C55.7108 82.6729 55.6262 83.155 55.574 83.8716C55.5117 84.7388 55.4965 85.6088 55.5284 86.4777C55.5675 87.4289 55.6587 88.3801 55.763 89.0837C55.8188 89.4809 55.8972 89.8746 55.9975 90.2629C56.0654 89.8662 56.1111 89.466 56.1343 89.0641C56.1942 88.1968 56.2072 87.3269 56.1734 86.4581C56.1415 85.5859 56.0633 84.716 55.9389 83.8521Z" fill="#F8E4BE"/>
<path d="M52.8185 82.6729C52.7226 83.0618 52.6465 83.4554 52.5905 83.8521C52.4862 84.5622 52.395 85.5134 52.3559 86.4581C52.3253 87.3269 52.3384 88.1967 52.395 89.0641C52.4221 89.4659 52.47 89.8661 52.5384 90.2629C52.6343 89.8739 52.7104 89.4804 52.7664 89.0837C52.8908 88.2198 52.9691 87.3499 53.0009 86.4777C53.0315 85.6089 53.0185 84.7391 52.9618 83.8716C52.9347 83.4698 52.8869 83.0697 52.8185 82.6729Z" fill="#F8E4BE"/>
<path d="M49.6127 83.8205C49.4564 84.5176 49.2935 85.4623 49.1827 86.4265C49.0851 87.3027 49.0329 88.1835 49.0264 89.0651C49.0264 89.7883 49.0785 90.2834 49.0785 90.2834C49.2065 89.9031 49.3131 89.516 49.3977 89.1237C49.5867 88.2632 49.7302 87.3933 49.8277 86.5177C49.9254 85.5665 49.9776 84.6088 49.9776 83.9117C49.9776 83.2146 49.9254 82.6934 49.9254 82.6934C49.8028 83.0637 49.6985 83.4399 49.6127 83.8205Z" fill="#F8E4BE"/>
<path d="M46.6352 83.7671C46.1334 85.4665 45.8081 87.2131 45.6644 88.9792C45.6293 89.3908 45.6163 89.804 45.6254 90.217C45.78 89.8444 45.9148 89.4638 46.0293 89.0769C46.2378 88.3863 46.4658 87.4481 46.6808 86.4709C46.8958 85.4936 46.974 84.5554 47.0261 83.8258C47.0612 83.4141 47.0743 83.0009 47.0652 82.5879C47.0652 82.5879 46.8437 83.0765 46.6352 83.7671Z" fill="#F8E4BE"/>
<path d="M42.8501 86.2624C42.6214 87.1365 42.4366 88.0215 42.2963 88.914C42.1856 89.6567 42.166 90.1649 42.166 90.1649C42.3486 89.8003 42.5117 89.4262 42.6546 89.0443C42.9712 88.2087 43.241 87.3561 43.4625 86.4904C43.6932 85.615 43.8759 84.7276 44.0098 83.8323C44.074 83.4199 44.1175 83.0046 44.1401 82.5879C43.9607 82.9509 43.7998 83.3227 43.658 83.702C43.3453 84.5412 43.0757 85.3957 42.8501 86.2624Z" fill="#F8E4BE"/>
<path d="M39.6838 86.1647C39.3711 87.1094 39.0974 88.0801 38.9346 88.8229C38.8373 89.24 38.7612 89.6619 38.7065 90.0868C38.9173 89.7303 39.1087 89.3628 39.2799 88.9857C39.66 88.1598 39.9949 87.3137 40.2832 86.4514C40.5959 85.5002 40.863 84.5359 41.0259 83.7867C41.1888 83.0375 41.2474 82.5293 41.2474 82.5293C41.2474 82.5293 40.9933 82.9528 40.6806 83.6303C40.3046 84.4573 39.9718 85.3032 39.6838 86.1647Z" fill="#F8E4BE"/>
<path d="M36.4915 86.0283C36.1071 86.9665 35.7683 87.9372 35.5468 88.6865C35.3253 89.4357 35.2275 89.9569 35.2275 89.9569C35.4657 89.6095 35.6832 89.2483 35.879 88.8754C36.3265 88.0618 36.7247 87.222 37.0713 86.3606C37.4326 85.4924 37.7458 84.605 38.0095 83.7024C38.231 82.9532 38.3287 82.3994 38.3287 82.3994C38.3287 82.3994 38.0421 82.8164 37.6772 83.4809C37.2377 84.3088 36.842 85.1591 36.4915 86.0283Z" fill="#F8E4BE"/>
<path d="M34.7322 83.4226C34.3218 84.0741 33.8201 84.9797 33.3576 85.9179C32.895 86.8561 32.4845 87.8203 32.2109 88.5761C31.9373 89.3318 31.7939 89.8791 31.7939 89.8791C31.7939 89.8791 32.1197 89.4751 32.5367 88.8236C32.9536 88.1721 33.4553 87.2665 33.9179 86.3283C34.3415 85.4625 34.7199 84.5753 35.0515 83.6702C35.3251 82.921 35.4619 82.3672 35.4619 82.3672C35.2013 82.7066 34.9577 83.0589 34.7322 83.4226Z" fill="#F8E4BE"/>
<path d="M32.5823 82.3672C32.2959 82.6853 32.0263 83.018 31.7744 83.364C31.3118 83.9829 30.7385 84.8364 30.2108 85.7224C29.6831 86.6085 29.1944 87.5402 28.8622 88.2568C28.5299 88.9735 28.354 89.4816 28.354 89.4816C28.6462 89.1674 28.9203 88.8367 29.1749 88.4914C29.7402 87.7339 30.2643 86.9466 30.745 86.1329C31.2329 85.3113 31.6787 84.4654 32.0806 83.5985C32.2693 83.1971 32.4367 82.7861 32.5823 82.3672Z" fill="#F8E4BE"/>
<path d="M29.6764 82.2559C29.6764 82.2559 29.2986 82.6272 28.7904 83.2396C28.2822 83.8521 27.6372 84.6925 27.0378 85.572C26.4385 86.4516 25.8782 87.3767 25.4938 88.0934C25.1094 88.81 24.8813 89.3247 24.8813 89.3247C25.1999 89.0171 25.5022 88.6931 25.7869 88.354C26.4119 87.6064 26.999 86.8279 27.546 86.0216C28.0997 85.206 28.6107 84.3622 29.0771 83.4937C29.2989 83.0921 29.499 82.6789 29.6764 82.2559Z" fill="#F8E4BE"/>
<path d="M73.3408 105.613L80.6182 104.102V104.519C80.6182 104.809 80.5028 105.087 80.2976 105.292C80.0923 105.498 79.8139 105.613 79.5236 105.613H73.3408Z" fill="#54372B"/>
<path d="M29.0059 105.613L36.2832 104.102V104.519C36.2832 104.809 36.1679 105.087 35.9626 105.292C35.7574 105.498 35.479 105.613 35.1887 105.613H29.0059Z" fill="#54372B"/>
<path d="M86.6576 29.9473C86.6576 29.9473 86.6576 30.3512 86.6576 31.1004C86.6576 31.8497 86.7032 32.9507 86.7097 34.358C86.7162 35.7652 86.7097 37.4657 86.7097 39.4202C86.7097 41.3747 86.6119 43.5703 86.5077 45.9743C86.4035 48.3784 86.2536 50.9714 86.0647 53.7208C85.8757 56.4701 85.6477 59.3628 85.3741 62.3533C85.1004 65.3437 84.7942 68.4383 84.4489 71.5721C84.2665 73.1357 84.0841 74.7189 83.9017 76.302C83.5433 79.2664 83.6671 79.9961 83.0156 80.0287L46.7266 80.159H30.7061L46.7201 79.957C91.3614 79.5726 80.0252 79.6703 83.0026 79.6508C83.0332 79.6492 83.0621 79.6364 83.0838 79.6147C83.1054 79.593 83.1183 79.5641 83.1199 79.5335C83.2632 78.439 83.185 79.0644 83.5368 76.276C83.7323 74.695 83.9234 73.1205 84.1102 71.5525C84.475 68.4188 84.8008 65.3372 85.0809 62.3467C85.3611 59.3563 85.6086 56.4832 85.8171 53.7208C86.0256 50.9584 86.1754 48.3784 86.2992 45.9809C86.423 43.5833 86.5142 41.3812 86.5663 39.4332C86.6185 37.4852 86.6445 35.7848 86.6771 34.384C86.7097 32.9833 86.6771 31.8757 86.6771 31.1265C86.6771 30.3773 86.6576 29.9473 86.6576 29.9473Z" fill="#54372B"/>
<path d="M24.875 46.8408C25.1299 48.2947 24.9297 49.7918 24.3017 51.1277C24.9162 50.2931 25.2349 49.2775 25.2073 48.2415C25.2734 46.9068 25.0511 45.5736 24.5558 44.3324C24.2142 43.3635 23.5759 42.5268 22.7315 41.9414L21.2461 42.0391C22.9074 41.772 24.4645 43.9481 24.875 46.8408Z" fill="#54372B"/>
<path d="M64.4218 40.4941H58.4409L64.4022 40.885C64.4087 40.7547 64.4218 40.6244 64.4218 40.4941Z" fill="#54372B"/>
<path d="M63.4314 41.5039C63.3746 42.3154 63.155 43.1072 62.7857 43.832C62.4163 44.5568 61.9048 45.1998 61.2816 45.7227C60.6584 46.2456 59.9363 46.6376 59.1583 46.8754C58.3803 47.1132 57.5625 47.192 56.7534 47.1069C58.3268 46.9071 59.8134 46.2732 61.0469 45.2761C62.1586 44.2495 62.9809 42.9486 63.4314 41.5039Z" fill="#54372B"/>
<path d="M66.0894 36.9894V36.3965H52.1797L66.0894 36.9894Z" fill="#54372B"/>
<path d="M87.5893 6.16016C87.5893 6.16016 87.8109 6.5706 88.1562 7.37195C88.6369 8.54301 89.0013 9.75849 89.2442 11.0009C89.4164 11.8858 89.5382 12.7798 89.609 13.6786C89.6937 14.6623 89.6872 15.7308 89.6937 16.8579C89.6937 19.1186 89.6937 21.666 89.6937 24.4545C89.6937 25.1451 89.6937 25.8552 89.6937 26.5784V27.1257C89.7159 27.3442 89.6982 27.5649 89.6416 27.7772C89.5994 27.8947 89.532 28.0017 89.4443 28.0905C89.3565 28.1794 89.2504 28.2481 89.1334 28.2919C89.021 28.3332 88.9012 28.3509 88.7816 28.344H88.5015H83.8562H81.4456C80.6341 28.3128 79.8214 28.3477 79.0155 28.4482C78.2139 28.5915 77.4494 28.8951 76.7678 29.3408C76.4242 29.5701 76.1035 29.8319 75.8101 30.1226L74.8849 31.0347L73.0151 32.8785L72.0639 33.8167C71.7127 34.156 71.2896 34.4121 70.8261 34.5659C70.3655 34.7016 69.885 34.7567 69.4058 34.7288H65.3404L54.2647 34.7613L43.1891 34.7288H39.0976C38.6205 34.7567 38.1421 34.7016 37.6839 34.5659C37.218 34.413 36.7926 34.1569 36.4395 33.8167L35.4948 32.8785L33.6184 31.0347C33.0443 30.4133 32.414 29.8462 31.7356 29.3408C31.0564 28.8951 30.294 28.5915 29.4944 28.4482C28.6863 28.3477 27.8715 28.3128 27.0578 28.344H24.6472H20.0019C19.7834 28.3646 19.5629 28.347 19.3504 28.2919C19.2334 28.2481 19.1274 28.1794 19.0396 28.0905C18.9518 28.0017 18.8845 27.8947 18.8422 27.7772C18.8037 27.6663 18.786 27.5492 18.7901 27.4319V26.611C18.7901 25.8878 18.7901 25.1777 18.7901 24.4871C18.7901 21.6986 18.7901 19.1512 18.7901 16.8905C18.7901 15.7634 18.7901 14.6949 18.8683 13.7111C18.9411 12.8122 19.0651 11.9182 19.2397 11.0334C19.4826 9.79108 19.847 8.5756 20.3277 7.40454C20.6665 6.60318 20.888 6.19272 20.888 6.19272L20.7837 6.51848C20.7121 6.72696 20.6078 7.04621 20.4775 7.46317C20.104 8.65378 19.8016 9.86555 19.5719 11.0921C19.4075 11.9666 19.2922 12.8497 19.2266 13.7372C19.1485 14.7079 19.1615 15.7569 19.1615 16.8905C19.1615 19.1512 19.1615 21.6986 19.1615 24.4871C19.1615 25.1777 19.1615 25.8878 19.1615 26.611V27.3928C19.1498 27.4574 19.1498 27.5236 19.1615 27.5882C19.1818 27.6464 19.2153 27.699 19.2594 27.7419C19.3035 27.7849 19.3569 27.817 19.4156 27.8358C19.573 27.8621 19.7337 27.8621 19.8912 27.8358H24.5364H26.96C27.8017 27.798 28.6451 27.8307 29.4814 27.9335C30.3518 28.0818 31.183 28.4054 31.9245 28.8848C32.2938 29.1339 32.6405 29.4151 32.9604 29.7252L34.0028 30.6503C34.6543 31.2627 35.2537 31.8687 35.8857 32.4876L36.8369 33.4127C37.1278 33.694 37.4803 33.9037 37.8663 34.0251C38.2693 34.1458 38.6914 34.19 39.1107 34.1554H40.4658H43.1956H54.2712H65.3469H68.0702H69.4253C69.8446 34.1907 70.2668 34.1465 70.6697 34.0251C71.058 33.9046 71.4128 33.6949 71.7056 33.4127L72.6568 32.4876L74.5396 30.6503L75.4713 29.7447C75.7899 29.4332 76.1367 29.1518 76.5072 28.9043C77.248 28.4236 78.0795 28.0999 78.9504 27.9531C79.7844 27.8502 80.6256 27.8175 81.4652 27.8554H83.8888H88.534C88.6939 27.8782 88.8563 27.8782 89.0162 27.8554C89.0733 27.8353 89.1253 27.8027 89.1682 27.7598C89.211 27.7169 89.2437 27.665 89.2637 27.6078C89.2982 27.454 89.3092 27.2958 89.2963 27.1387V26.5914C89.2963 25.8683 89.2963 25.1581 89.2963 24.4675C89.2963 21.6791 89.2963 19.1317 89.2963 16.8709C89.2963 15.7373 89.2963 14.6884 89.2377 13.7177C89.1721 12.8302 89.0568 11.9471 88.8924 11.0725C88.6612 9.84575 88.3566 8.63394 87.9803 7.44363C87.85 7.02666 87.7522 6.70742 87.674 6.49893L87.5893 6.16016Z" fill="#54372B"/>
<path d="M88.892 98.0221C88.892 98.0221 88.8008 98.2958 88.5858 98.7909C88.2787 99.512 87.9216 100.211 87.5173 100.882C87.2469 101.262 86.8945 101.577 86.4863 101.802C86.0781 102.028 85.6245 102.159 85.1589 102.185C84.807 102.185 84.5074 102.185 84.136 102.185H79.4451C72.5782 102.231 63.4246 102.185 54.2644 102.185C45.1042 102.185 35.9505 102.185 29.0836 102.185H24.3992C24.0474 102.185 23.7477 102.185 23.3829 102.185C23.0425 102.169 22.7076 102.094 22.3926 101.964C21.8385 101.742 21.3609 101.364 21.0179 100.876C20.612 100.204 20.2529 99.5054 19.9429 98.7844C19.7344 98.2893 19.6367 98.0156 19.6367 98.0156C19.6367 98.0156 19.8191 98.2371 20.1319 98.6671C20.4446 99.0971 20.8616 99.8008 21.3567 100.622C21.6563 101.04 22.0702 101.364 22.549 101.553C22.8201 101.658 23.1059 101.719 23.3959 101.736H24.3992H29.0836C35.9505 101.69 45.1107 101.736 54.2644 101.736C63.418 101.736 72.5782 101.736 79.4451 101.736H84.136H85.1328C85.423 101.72 85.7088 101.658 85.9798 101.553C86.4585 101.364 86.8724 101.04 87.172 100.622C87.6737 99.8008 88.0906 99.0971 88.3969 98.6671C88.7031 98.2371 88.892 98.0221 88.892 98.0221Z" fill="#54372B"/>
<path d="M23.5527 2.44615L33.1494 2.29631L42.9872 2.21811L54.2648 2.18555L65.5424 2.21811L75.3867 2.29631L84.9834 2.44615L75.3867 2.58948L65.5424 2.67418L54.2648 2.70675L43.0068 2.66766L33.169 2.58948L23.5527 2.44615Z" fill="#54372B"/>
<path d="M89.2637 89.748L89.0813 89.8393C88.9075 89.9268 88.7292 90.0051 88.5471 90.0738C87.8504 90.3534 87.1366 90.5884 86.4101 90.7774C85.4785 91.025 84.3318 91.2791 83.0093 91.5136C81.6867 91.7482 80.1817 91.9762 78.5334 92.1652C76.8851 92.3541 75.1 92.5235 73.2106 92.6798L70.2984 92.8818L67.2558 93.0317C65.184 93.1098 63.0471 93.188 60.8776 93.2271C58.708 93.2662 56.4994 93.2857 54.2908 93.3053C52.0822 93.3248 49.8866 93.3053 47.7106 93.2271C45.5345 93.1489 43.3976 93.1098 41.3323 93.0317L38.2898 92.8818L35.3775 92.6798C33.4817 92.53 31.6965 92.3541 30.0547 92.1652C28.4129 91.9762 26.9014 91.7547 25.5789 91.5136C24.2563 91.2726 23.1096 91.025 22.1715 90.7774C21.4482 90.5871 20.7369 90.3544 20.041 90.0803C19.8 89.9826 19.6176 89.8979 19.5003 89.8393L19.3179 89.748L19.5068 89.8262C19.6834 89.9119 19.8664 89.9838 20.0541 90.0412C20.7579 90.2882 21.4758 90.4927 22.2041 90.6537C23.1422 90.8686 24.2889 91.0836 25.618 91.3052C26.947 91.5267 28.452 91.6635 30.0938 91.8329C31.7356 92.0023 33.5207 92.1261 35.4101 92.2368C37.2995 92.3476 39.3192 92.4192 41.3519 92.5039C43.3846 92.5886 45.5476 92.6277 47.7171 92.6538C49.8866 92.6798 52.0952 92.6538 54.2908 92.6929C56.4864 92.732 58.7015 92.6929 60.8645 92.6538C63.0275 92.6147 65.171 92.5691 67.2298 92.5039L70.2723 92.3801L73.178 92.2368C75.0674 92.1261 76.8525 91.9892 78.4943 91.8329C80.1361 91.6765 81.6411 91.5006 82.9702 91.3052C84.2993 91.1097 85.4459 90.8947 86.3841 90.6537C87.1121 90.4918 87.83 90.2873 88.5341 90.0412C88.7209 89.9814 88.9037 89.9096 89.0813 89.8262L89.2637 89.748Z" fill="#54372B"/>
<path d="M24.4062 43.1857C24.4062 43.1857 25.9373 42.9707 28.2436 42.7166C29.3903 42.6059 30.7324 42.443 32.1527 42.3127L36.6676 41.9088L41.1891 41.57C42.6289 41.4592 43.9841 41.3941 45.1372 41.3224C47.4501 41.1921 48.9942 41.1465 48.9942 41.1465C48.9942 41.1465 47.4631 41.3615 45.1633 41.6156C44.0101 41.7328 42.668 41.8892 41.2542 42.0195L36.7328 42.4235L32.2113 42.7622C30.7715 42.873 29.4229 42.9381 28.2632 43.0098C25.9503 43.1401 24.4062 43.1857 24.4062 43.1857Z" fill="#54372B"/>
<path d="M60.2843 14.2781C58.8918 12.887 57.06 12.0217 55.1011 11.8297C53.1421 11.6376 51.1772 12.1307 49.541 13.2249C47.9048 14.319 46.6986 15.9466 46.1278 17.8304C45.557 19.7141 45.657 21.7375 46.4107 23.5558C47.1644 25.3742 48.5252 26.8749 50.2613 27.8025C51.9973 28.73 54.0013 29.027 55.9318 28.6428C57.8622 28.2586 59.5998 27.217 60.8484 25.6954C62.0971 24.1738 62.7795 22.2663 62.7796 20.298C62.7789 18.0399 61.8814 15.8745 60.2843 14.2781ZM48.707 14.7406C50.1014 13.3478 51.9679 12.5294 53.937 12.4474C55.9061 12.3653 57.8342 13.0256 59.3396 14.2976L48.264 25.3733C46.9898 23.8693 46.3274 21.9413 46.4082 19.9718C46.4891 18.0023 47.3073 16.1351 48.7005 14.7406H48.707ZM59.8283 25.8554C58.4327 27.2491 56.5644 28.0675 54.5938 28.1483C52.6232 28.2292 50.6942 27.5666 49.1891 26.2919L60.2648 15.2162C61.539 16.7202 62.2014 18.6482 62.1206 20.6177C62.0397 22.5872 61.2215 24.4544 59.8283 25.8489V25.8554Z" fill="#54372B"/>
<path d="M51.4762 21.2814L53.3656 19.4181L55.2289 17.5287L56.8316 15.8609C57.7697 14.8771 58.3756 14.2061 58.3756 14.2061C58.3756 14.2061 57.7241 14.8119 56.7143 15.7436L55.0464 17.3528L53.1571 19.2162L51.2938 21.1055L49.691 22.7734C48.7529 23.7572 48.147 24.4282 48.147 24.4282C48.147 24.4282 48.7985 23.8223 49.8083 22.8906L51.4762 21.2814Z" fill="#54372B"/>
<path d="M58.7011 17.7046L57.0333 19.3073L55.1439 21.1706L53.2806 23.06L51.6714 24.7343C50.7397 25.7116 50.1338 26.3892 50.1338 26.3892C50.1338 26.3892 50.7853 25.7833 51.7886 24.8451L53.4304 23.2424L55.3198 21.3791L57.1831 19.4897L58.7923 17.8218C59.724 16.8381 60.3299 16.167 60.3299 16.167C60.3299 16.167 59.6849 16.7729 58.7011 17.7046Z" fill="#54372B"/>
<path d="M64.3108 14.0824C61.8872 10.8965 58.369 8.79862 54.2775 8.79862C50.1861 8.79862 46.6549 10.89 44.2183 14.0824C45.2093 12.2855 46.6641 10.7874 48.4311 9.74407C50.1981 8.70074 52.2125 8.15039 54.2645 8.15039C56.3165 8.15039 58.331 8.70074 60.0979 9.74407C61.8649 10.7874 63.3197 12.2855 64.3108 14.0824Z" fill="#54372B"/>
<path d="M84.1296 10.7148H69.158C68.6902 10.7148 68.311 11.094 68.311 11.5618V18.546C68.311 19.0137 68.6902 19.3929 69.158 19.3929H84.1296C84.5974 19.3929 84.9766 19.0137 84.9766 18.546V11.5618C84.9766 11.094 84.5974 10.7148 84.1296 10.7148Z" fill="#54372B"/>
<path d="M84.3382 11.5479V18.5581C84.339 18.5834 84.3348 18.6087 84.3257 18.6324C84.3166 18.6561 84.3028 18.6777 84.2852 18.6959C84.2676 18.7141 84.2464 18.7287 84.2231 18.7386C84.1997 18.7485 84.1746 18.7535 84.1492 18.7535H69.1646C76.1422 17.4831 81.6279 15.3266 84.3382 11.5479Z" fill="#F8E4BE"/>
<path d="M70.5847 22.6759C70.5847 22.8875 70.5219 23.0944 70.4042 23.2702C70.2865 23.4461 70.1192 23.583 69.9236 23.6637C69.728 23.7443 69.5128 23.7651 69.3054 23.7234C69.0979 23.6816 68.9076 23.5792 68.7584 23.4291C68.6092 23.279 68.508 23.088 68.4675 22.8803C68.427 22.6726 68.4491 22.4576 68.531 22.2625C68.6128 22.0674 68.7508 21.901 68.9274 21.7843C69.1039 21.6677 69.3111 21.6062 69.5227 21.6074C69.6627 21.6074 69.8014 21.6351 69.9306 21.6889C70.0599 21.7427 70.1773 21.8215 70.276 21.9208C70.3747 22.0201 70.4528 22.1379 70.5057 22.2675C70.5587 22.3971 70.5856 22.5359 70.5847 22.6759Z" fill="#54372B"/>
<path d="M73.08 23.7372C73.6665 23.7372 74.142 23.2617 74.142 22.6752C74.142 22.0887 73.6665 21.6133 73.08 21.6133C72.4935 21.6133 72.0181 22.0887 72.0181 22.6752C72.0181 23.2617 72.4935 23.7372 73.08 23.7372Z" fill="#54372B"/>
<path d="M76.644 23.7372C77.2305 23.7372 77.7059 23.2617 77.7059 22.6752C77.7059 22.0887 77.2305 21.6133 76.644 21.6133C76.0575 21.6133 75.582 22.0887 75.582 22.6752C75.582 23.2617 76.0575 23.7372 76.644 23.7372Z" fill="#54372B"/>
<path d="M80.2075 23.7372C80.794 23.7372 81.2694 23.2617 81.2694 22.6752C81.2694 22.0887 80.794 21.6133 80.2075 21.6133C79.621 21.6133 79.1455 22.0887 79.1455 22.6752C79.1455 23.2617 79.621 23.7372 80.2075 23.7372Z" fill="#54372B"/>
<path d="M83.7778 23.7372C84.3643 23.7372 84.8397 23.2617 84.8397 22.6752C84.8397 22.0887 84.3643 21.6133 83.7778 21.6133C83.1913 21.6133 82.7158 22.0887 82.7158 22.6752C82.7158 23.2617 83.1913 23.7372 83.7778 23.7372Z" fill="#54372B"/>
<path d="M28.1782 12.1992H31.3315C31.5474 12.1992 31.7546 12.285 31.9073 12.4377C32.06 12.5905 32.1458 12.7976 32.1458 13.0136V21.4376C32.1458 21.6536 32.06 21.8607 31.9073 22.0135C31.7546 22.1662 31.5474 22.252 31.3315 22.252H28.1782C27.9622 22.252 27.755 22.1662 27.6023 22.0135C27.4496 21.8607 27.3638 21.6536 27.3638 21.4376V13.0136C27.3655 12.7981 27.4518 12.592 27.6042 12.4396C27.7565 12.2873 27.9627 12.2009 28.1782 12.1992Z" fill="#54372B"/>
<path d="M31.3316 12.8379H28.1783C28.0812 12.8379 28.0024 12.9166 28.0024 13.0138V21.4378C28.0024 21.5349 28.0812 21.6137 28.1783 21.6137H31.3316C31.4288 21.6137 31.5076 21.5349 31.5076 21.4378V13.0138C31.5076 12.9166 31.4288 12.8379 31.3316 12.8379Z" fill="#F8E4BE"/>
<path d="M28.3213 21.2948C29.9957 20.7997 30.8817 19.0797 31.1879 16.4541V21.2948H28.3213Z" fill="#54372B"/>
<path d="M29.755 14.3175C29.9349 14.3175 30.0807 14.1717 30.0807 13.9918C30.0807 13.8119 29.9349 13.666 29.755 13.666C29.575 13.666 29.4292 13.8119 29.4292 13.9918C29.4292 14.1717 29.575 14.3175 29.755 14.3175Z" fill="#54372B"/>
<path d="M35.3383 14.3231C35.5484 14.3231 35.7537 14.2608 35.9283 14.1441C36.103 14.0275 36.2391 13.8616 36.3194 13.6676C36.3998 13.4735 36.4209 13.26 36.3799 13.054C36.3389 12.848 36.2378 12.6588 36.0892 12.5102C35.9407 12.3617 35.7515 12.2606 35.5455 12.2196C35.3395 12.1787 35.126 12.1997 34.9319 12.28C34.7379 12.3604 34.572 12.4965 34.4553 12.6712C34.3387 12.8458 34.2764 13.0511 34.2764 13.2612C34.2764 13.5428 34.3883 13.8129 34.5874 14.0121C34.7866 14.2112 35.0567 14.3231 35.3383 14.3231Z" fill="#54372B"/>
<path d="M35.3382 16.1602C35.1266 16.1589 34.9194 16.2205 34.7428 16.3371C34.5662 16.4537 34.4283 16.6201 34.3464 16.8152C34.2645 17.0103 34.2424 17.2254 34.2829 17.4331C34.3234 17.6408 34.4247 17.8317 34.5738 17.9818C34.723 18.1319 34.9134 18.2343 35.1208 18.2761C35.3282 18.3178 35.5434 18.2971 35.739 18.2164C35.9346 18.1357 36.1019 17.9988 36.2196 17.8229C36.3373 17.6471 36.4001 17.4402 36.4001 17.2286C36.401 17.0886 36.3742 16.9498 36.3212 16.8203C36.2682 16.6907 36.1901 16.5728 36.0914 16.4735C35.9927 16.3742 35.8753 16.2954 35.7461 16.2416C35.6168 16.1879 35.4782 16.1602 35.3382 16.1602Z" fill="#54372B"/>
<path d="M35.3382 20.1289C35.1263 20.1276 34.9188 20.1894 34.7421 20.3063C34.5654 20.4232 34.4274 20.59 34.3458 20.7855C34.2641 20.981 34.2424 21.1964 34.2834 21.4042C34.3244 21.6121 34.4263 21.8031 34.5761 21.9529C34.726 22.1027 34.9169 22.2046 35.1248 22.2456C35.3327 22.2866 35.548 22.2649 35.7435 22.1833C35.939 22.1016 36.1058 21.9636 36.2228 21.7869C36.3397 21.6102 36.4014 21.4028 36.4001 21.1909C36.4001 20.9092 36.2882 20.6391 36.0891 20.44C35.8899 20.2408 35.6198 20.1289 35.3382 20.1289Z" fill="#54372B"/>
<path d="M49.6388 97.2088C49.6051 97.287 49.5564 97.3579 49.4955 97.4173C49.5574 97.4774 49.6081 97.548 49.6453 97.6258C49.6817 97.7056 49.7005 97.7922 49.7005 97.8799C49.7005 97.9676 49.6817 98.0542 49.6453 98.134C49.5966 98.2264 49.5276 98.3066 49.4434 98.3685C49.3578 98.4371 49.2607 98.49 49.1567 98.5249C49.0439 98.5654 48.9247 98.5853 48.8049 98.5835H47.1892V97.6975H46.9155V97.1437H47.2022V96.2511H48.7984C49.0336 96.2399 49.2649 96.3139 49.4499 96.4596C49.5311 96.5189 49.5975 96.5963 49.6439 96.6856C49.6902 96.7749 49.7152 96.8737 49.717 96.9743C49.7079 97.0571 49.6813 97.1371 49.6388 97.2088ZM48.9352 96.857C48.8928 96.8228 48.8398 96.8043 48.7854 96.8049H47.8798V97.1437H48.7854C48.8398 97.1442 48.8928 97.1258 48.9352 97.0916C48.954 97.0783 48.9694 97.0608 48.98 97.0404C48.9906 97.02 48.9961 96.9973 48.9961 96.9743C48.9961 96.9513 48.9906 96.9286 48.98 96.9082C48.9694 96.8878 48.954 96.8702 48.9352 96.857ZM48.9352 97.7431C48.8922 97.7107 48.8391 97.6945 48.7854 97.6975H47.8798V98.0297H48.7854C48.8398 98.0303 48.8928 98.0119 48.9352 97.9776C48.954 97.9644 48.9694 97.9468 48.98 97.9264C48.9906 97.906 48.9961 97.8833 48.9961 97.8603C48.9961 97.8373 48.9906 97.8147 48.98 97.7943C48.9694 97.7739 48.954 97.7563 48.9352 97.7431Z" fill="#54372B"/>
<path d="M52.7791 97.5999C52.7023 97.7258 52.6003 97.8345 52.4794 97.9191C52.565 98.0117 52.6354 98.1172 52.6879 98.2318C52.7341 98.3434 52.7584 98.4629 52.7596 98.5836H52.069C52.0707 98.5008 52.048 98.4192 52.0038 98.3491C51.9566 98.2703 51.892 98.2035 51.8149 98.1536H51.0135V98.5771H50.3229V98.1536H49.8604V97.5999H50.3229V96.2447H51.6911C51.9976 96.2355 52.2975 96.3347 52.538 96.5249C52.6425 96.5994 52.7286 96.6969 52.7896 96.8098C52.8506 96.9227 52.8849 97.0481 52.8899 97.1764C52.8892 97.3246 52.8511 97.4703 52.7791 97.5999ZM52.0429 96.9484C51.9399 96.8704 51.8137 96.8292 51.6846 96.8311H51.0331V97.6324H51.6846C51.8137 97.6344 51.9399 97.5931 52.0429 97.5152C52.0882 97.4825 52.1249 97.4394 52.1498 97.3895C52.1748 97.3396 52.1873 97.2843 52.1862 97.2285C52.1907 97.1701 52.1806 97.1115 52.1567 97.0581C52.1328 97.0046 52.0959 96.9579 52.0494 96.9223L52.0429 96.9484Z" fill="#54372B"/>
<path d="M55.0465 98.5831V98.1596H54.0823V98.5831H53.3851V98.1596H53.0854V97.6058H53.3851V97.1368C53.3869 97.0085 53.4191 96.8826 53.4791 96.7693C53.5392 96.656 53.6253 96.5586 53.7304 96.4852C53.9657 96.3018 54.2541 96.1995 54.5524 96.1936C54.8507 96.1878 55.1429 96.2786 55.3853 96.4527C55.4893 96.5272 55.5746 96.6248 55.6345 96.7378C55.6944 96.8509 55.7273 96.9763 55.7306 97.1042V98.5505L55.0465 98.5831ZM55.0465 97.4886V97.1368C55.0458 97.0838 55.0331 97.0317 55.0094 96.9843C54.9857 96.9369 54.9516 96.8955 54.9097 96.8631C54.8116 96.7852 54.6896 96.7438 54.5644 96.7459C54.439 96.7427 54.3166 96.7842 54.2191 96.8631C54.1763 96.8952 54.1412 96.9363 54.1164 96.9837C54.0916 97.031 54.0777 97.0833 54.0757 97.1368V97.6058H55.0465V97.4886Z" fill="#54372B"/>
<path d="M58.0498 98.5832V96.8046H57.2745C57.1171 96.8022 56.9634 96.8526 56.838 96.9479C56.7821 96.9866 56.7364 97.0382 56.7046 97.0983C56.6729 97.1584 56.6561 97.2252 56.6556 97.2932V98.5962H55.9585V96.2638H56.6882V96.3876C56.7823 96.3466 56.8806 96.316 56.9814 96.2964C57.0887 96.2753 57.1977 96.2643 57.3071 96.2638H58.1215C58.2881 96.2605 58.4511 96.3132 58.5841 96.4137C58.6417 96.4572 58.6886 96.5132 58.7214 96.5776C58.7541 96.6419 58.7718 96.7129 58.773 96.785V98.5962L58.0498 98.5832Z" fill="#54372B"/>
<path d="M61.3922 98.4071C61.2613 98.5122 61.0974 98.5676 60.9296 98.5634H58.9751V96.231H60.9296C61.0967 96.2244 61.2607 96.2775 61.3922 96.3809C61.4507 96.425 61.4981 96.4821 61.5309 96.5477C61.5637 96.6132 61.5809 96.6855 61.5811 96.7587V98.0618C61.5761 98.1295 61.5566 98.1953 61.5241 98.2549C61.4915 98.3144 61.4465 98.3663 61.3922 98.4071ZM60.8905 96.7848H59.6722V98.0096H60.8905V96.7848Z" fill="#54372B"/>
</svg>
